<svg xmlns="http://www.w3.org/2000/svg" viewBox="0 0 850 430" width="850" height="430" role="img" aria-labelledby="t d"><title id="t">Galaxy of servrox</title><desc id="d">17 repositories; by focus area: Web &amp; mobile 7, Full stack &amp; Web3 5, Developer tools 2; 3 outside any area; brightest: demo-ionic-tab-routing with 34 stars.</desc><defs><radialGradient id="hn"><stop offset="0" stop-color="#c9560b" stop-opacity=".35"/><stop offset=".16" stop-color="#c9560b" stop-opacity=".18"/><stop offset=".42" stop-color="#c9560b" stop-opacity=".06"/><stop offset="1" stop-color="#c9560b" stop-opacity="0"/></radialGradient><radialGradient id="cn"><stop offset=".5" stop-color="#c9560b"/><stop offset="1" stop-color="#c9560b"/></radialGradient><linearGradient id="sn" x1="0" y1="0" x2="1" y2="0"><stop offset="0" stop-color="#c9560b" stop-opacity="0"/><stop offset=".5" stop-color="#c9560b" stop-opacity=".95"/><stop offset="1" stop-color="#c9560b" stop-opacity="0"/></linearGradient><linearGradient id="vn" x1="0" y1="0" x2="0" y2="1"><stop offset="0" stop-color="#c9560b" stop-opacity="0"/><stop offset=".5" stop-color="#c9560b" stop-opacity=".95"/><stop offset="1" stop-color="#c9560b" stop-opacity="0"/></linearGradient><radialGradient id="hy"><stop offset="0" stop-color="#11305a" stop-opacity=".35"/><stop offset=".16" stop-color="#11305a" stop-opacity=".18"/><stop offset=".42" stop-color="#11305a" stop-opacity=".06"/><stop offset="1" stop-color="#11305a" stop-opacity="0"/></radialGradient><radialGradient id="cy"><stop offset=".5" stop-color="#11305a"/><stop offset="1" stop-color="#11305a"/></radialGradient><linearGradient id="sy" x1="0" y1="0" x2="1" y2="0"><stop offset="0" stop-color="#11305a" stop-opacity="0"/><stop offset=".5" stop-color="#11305a" stop-opacity=".95"/><stop offset="1" stop-color="#11305a" stop-opacity="0"/></linearGradient><linearGradient id="vy" x1="0" y1="0" x2="0" y2="1"><stop offset="0" stop-color="#11305a" stop-opacity="0"/><stop offset=".5" stop-color="#11305a" stop-opacity=".95"/><stop offset="1" stop-color="#11305a" stop-opacity="0"/></linearGradient><radialGradient id="cg"><stop offset="0" stop-color="#11305a" stop-opacity="0.4"/><stop offset=".14" stop-color="#11305a" stop-opacity="0.2"/><stop offset=".5" stop-color="#11305a" stop-opacity="0.06"/><stop offset="1" stop-color="#11305a" stop-opacity="0"/></radialGradient><filter id="lb" x="-40%" y="-80%" width="180%" height="260%"><feGaussianBlur stdDeviation="5.5"/></filter><g id="t00"><path d="M-112.6 111.7h.01m-25.2 -11.3h.01m-25.3 -53.5h.01m24.4 63.8h.01m-59.5 -101.7h.01m54.8 88.5h.01m4.9 -33.9h.01m-2.1 33h.01m8.2 10.5h.01m-75.6 -91.9h.01m109.6 94.7h.01m-97 -62h.01m-11.3 -26.7h.01m109.9 110.9h.01m-89.9 -120.4h.01m-17.2 2h.01m-30 1.5h.01m72 33.7h.01m18.4 44.1h.01m-74 -78.8h.01m7.4 5.3h.01m35.9 21.9h.01m0 1.3h.01m-39.5 -27.7h.01m40.6 -.9h.01m-7.3 29.6h.01m-2.6 3.1h.01m22.8 37.6h.01m79.3 46.5h.01m-56.8 -5.4h.01m-15 -46.4h.01m-48 -78.8h.01m3 44.4h.01m59.3 55.4h.01m-15 -8.7h.01m16.2 .3h.01m-28.2 -40.1h.01" stroke="#11305a" stroke-width="1.47" stroke-opacity=".9"/><path d="M-180.1 36.5h.01m84.5 88.4h.01m-54.9 -13.8h.01m-78.5 -96.7h.01m51.9 44.8h.01m38.8 41.3h.01m3.3 6.5h.01m-17.9 -9.4h.01m-22.2 -47.1h.01m8.1 1.8h.01" stroke="#c9560b" stroke-width="1.47" stroke-opacity=".9"/><path d="M-205.9 4.7h.01m.2 30.3h.01m77.6 57.2h.01m-10.3 -1.3h.01m16.9 20.9h.01m-25.5 -1.7h.01m2.4 -22.4h.01m5.4 9.5h.01m52.6 28.8h.01m-49.5 -29.7h.01m-45.5 -39.8h.01m-10 -43.5h.01m22 33.1h.01m72.1 68.7h.01m-23.7 -10.6h.01m-24.2 .7h.01m-2.3 -12.9h.01m3 -13.3h.01m-63.9 -76.7h.01m30.5 17.2h.01m12 74h.01m-.7 -44.9h.01" stroke="#11305a" stroke-width="2.42"/><path d="M-139.9 116.2h.01m-14.3 -40.6h.01m16.7 34h.01m-16.4 -32h.01m13.6 11.7h.01m-4.3 -.8h.01m-3.7 -4.2h.01" stroke="#c9560b" stroke-width="2.42"/><defs><g id="d1"><path d="M-176.2 39.6h.01m5.5 4.3h.01m29.9 31h.01m9.7 37.1h.01m-73.1 -85.2h.01m25.2 16.4h.01m41.7 64.7h.01m-51.6 -92.6h.01m8.9 39.7h.01m49.3 52.5h.01m-19.3 -2.9h.01m-13.2 -61.9h.01m6.2 44.7h.01m36.5 21.3h.01" stroke="#11305a"/><path d="M-156.3 77.1h.01m73.5 49.7h.01m-54.3 -38.4h.01m4.9 15.3h.01" stroke="#c9560b"/></g></defs><use href="#d1" stroke-width="12.54" stroke-opacity=".021"/><use href="#d1" stroke-width="9.88" stroke-opacity=".042"/><use href="#d1" stroke-width="7.6" stroke-opacity=".078"/><use href="#d1" stroke-width="5.7" stroke-opacity=".156"/><use href="#d1" stroke-width="3.8"/><defs><g id="d2"><path d="M-111.1 106.2h.01" stroke="#c9560b"/></g></defs><use href="#d2" stroke-width="19.37" stroke-opacity=".021"/><use href="#d2" stroke-width="15.26" stroke-opacity=".042"/><use href="#d2" stroke-width="11.74" stroke-opacity=".078"/><use href="#d2" stroke-width="8.8" stroke-opacity=".156"/><use href="#d2" stroke-width="5.87"/></g><radialGradient id="g0"><stop offset=".8" stop-color="#fff"/><stop offset="1" stop-color="#fff" stop-opacity="0"/></radialGradient><mask id="k0" maskUnits="userSpaceOnUse" x="-203.8" y="-203.8" width="407.7" height="407.7"><circle r="203.8" fill="url(#g0)"/></mask><g id="t01"><path d="M-176.4 67.6h.01m-21.9 -66.1h.01m51.9 88.7h.01m39.7 37.1h.01m21 -1.1h.01m-70.8 -26.4h.01m-33.8 -37.5h.01m27.9 18.5h.01m55.7 51h.01m-39.5 -43.9h.01m49.7 32.1h.01m-40.5 -55.4h.01m50.5 .7h.01m-80.6 20.5h.01m31.1 8h.01m-21.6 -1.8h.01m-27.8 -57.6h.01m49.7 76.2h.01m-43.5 -106.7h.01m96.1 114.4h.01m-64.4 -9.5h.01m-27 -67.3h.01m2.5 13.5h.01m82.4 63.9h.01m-66 -15.6h.01m-6.7 -33.5h.01m15.9 35h.01m8.5 -18.9h.01m-28.5 -15.2h.01m31.9 37h.01m-7.5 -21.9h.01" stroke="#11305a" stroke-width="2.64" stroke-opacity=".9"/><path d="M-144.5 120.8h.01m5.3 -37h.01m-36.8 -1.5h.01m75.3 27.4h.01m-17.9 15.5h.01m-53.4 -58.7h.01" stroke="#c9560b" stroke-width="2.64" stroke-opacity=".9"/><path d="M-119.1 121.8h.01m34.4 4.4h.01m-77.3 -51.7h.01m3.7 2.8h.01m31.4 36.1h.01m-10.1 -13.8h.01m-70.1 -13.8h.01m47 5.9h.01m28.3 -.5h.01m-71.3 -69.9h.01m42.8 46.8h.01m3.3 -1.2h.01m13.4 19.3h.01m-20.1 -44.4h.01m68.6 83.7h.01m-104.5 -100.5h.01m120.7 87.9h.01m-48.1 -17.6h.01" stroke="#11305a" stroke-width="4.35"/><path d="M-142.6 82.4h.01m-14.3 54.5h.01m-62.3 -128.7h.01" stroke="#c9560b" stroke-width="4.35"/><defs><g id="d3"><path d="M-124.1 105.2h.01m-51.8 -59.9h.01m-16.9 -8.7h.01m48.7 66.2h.01m-23.2 -24.1h.01m-25.5 -39.9h.01m8.4 0h.01m45.1 68.4h.01m2.6 -6.2h.01m-39.9 -27h.01m-14.2 -47.2h.01" stroke="#11305a"/><path d="M-128.9 91h.01" stroke="#c9560b"/></g></defs><use href="#d3" stroke-width="22.57" stroke-opacity=".021"/><use href="#d3" stroke-width="17.78" stroke-opacity=".042"/><use href="#d3" stroke-width="13.68" stroke-opacity=".078"/><use href="#d3" stroke-width="10.26" stroke-opacity=".156"/><use href="#d3" stroke-width="6.84"/><defs><g id="d4"><path d="M-158.7 65.9h.01m15.6 31.7h.01m-25.9 -22.8h.01m-17.1 -20.7h.01" stroke="#11305a"/><path d="M-127.9 113.9h.01" stroke="#c9560b"/></g></defs><use href="#d4" stroke-width="34.88" stroke-opacity=".021"/><use href="#d4" stroke-width="27.48" stroke-opacity=".042"/><use href="#d4" stroke-width="21.14" stroke-opacity=".078"/><use href="#d4" stroke-width="15.86" stroke-opacity=".156"/><use href="#d4" stroke-width="10.57"/></g><radialGradient id="g1"><stop offset=".8" stop-color="#fff"/><stop offset="1" stop-color="#fff" stop-opacity="0"/></radialGradient><mask id="k1" maskUnits="userSpaceOnUse" x="-122.3" y="-122.3" width="244.6" height="244.6"><circle r="122.3" fill="url(#g1)"/></mask><g id="t02"><path d="M-96.4 125.1h.01m-17.4 6.3h.01m-24 -31h.01m-89.4 -61.8h.01m131.9 64.6h.01m15.8 16h.01m-3.2 4.6h.01m-101.6 -96.5h.01m82.9 94.8h.01m9.4 -3.6h.01m-87.2 -105.9h.01m68.8 116.3h.01m-81.3 -93.6h.01m8.6 -1.8h.01m-13.7 24.2h.01m32.6 -18.5h.01m61.4 68.6h.01m9.4 11.1h.01m-95.8 -114.7h.01m43.4 74.9h.01m-37.2 -42.3h.01m-11.6 -33.5h.01m58.7 84.2h.01m42.4 48.3h.01m-91.4 -117.5h.01m67.6 74.3h.01m-13.9 -1h.01m27.6 14.7h.01" stroke="#11305a" stroke-width="1.47" stroke-opacity=".9"/><path d="M-169.3 23.6h.01m53.8 111.9h.01m-1.2 -4.6h.01m7.7 -18.9h.01m-43.1 -58.4h.01m50.3 65.4h.01m-28.8 35.2h.01m31.3 -33.7h.01m5.2 1.1h.01m-4.7 10.4h.01" stroke="#c9560b" stroke-width="1.47" stroke-opacity=".9"/><path d="M-200.3 20.9h.01m12.8 23h.01m79.5 60h.01m14.4 23h.01m-1.4 -10.1h.01m-37.3 -28.2h.01m46.3 49.9h.01m-14.1 -8.9h.01m-81.4 -94.6h.01m50.3 90.3h.01m-31.7 -59.5h.01m-27.1 -28.6h.01m98.7 97.9h.01m-95.5 -102.6h.01m96.4 89.7h.01m-27.3 -7.5h.01m-57.7 -63.9h.01m-5.7 -23.6h.01m5.7 -11.2h.01m-7.7 23.3h.01m4.1 9.9h.01" stroke="#11305a" stroke-width="2.42"/><path d="M-119.2 101.3h.01m-36.9 -28.4h.01" stroke="#c9560b" stroke-width="2.42"/><defs><g id="d5"><path d="M-85.3 117.2h.01m-90.5 -65h.01m85.2 70.7h.01m-12.2 2.4h.01m-32.6 -32.5h.01m3.4 -6.7h.01m59.8 37.5h.01m-39.2 -2.6h.01" stroke="#11305a"/><path d="M-187.7 14.4h.01m31.1 56.2h.01" stroke="#c9560b"/></g></defs><use href="#d5" stroke-width="12.54" stroke-opacity=".021"/><use href="#d5" stroke-width="9.88" stroke-opacity=".042"/><use href="#d5" stroke-width="7.6" stroke-opacity=".078"/><use href="#d5" stroke-width="5.7" stroke-opacity=".156"/><use href="#d5" stroke-width="3.8"/><defs><g id="d6"><path d="M-181.1 54.9h.01m95.6 76.7h.01m-50.6 -33.9h.01m38.5 15.1h.01" stroke="#11305a"/></g></defs><use href="#d6" stroke-width="19.37" stroke-opacity=".021"/><use href="#d6" stroke-width="15.26" stroke-opacity=".042"/><use href="#d6" stroke-width="11.74" stroke-opacity=".078"/><use href="#d6" stroke-width="8.8" stroke-opacity=".156"/><use href="#d6" stroke-width="5.87"/></g><radialGradient id="g2"><stop offset=".288" stop-color="#fff" stop-opacity="0"/><stop offset=".385" stop-color="#fff"/><stop offset=".8" stop-color="#fff"/><stop offset="1" stop-color="#fff" stop-opacity="0"/></radialGradient><mask id="k2" maskUnits="userSpaceOnUse" x="-203.8" y="-203.8" width="407.7" height="407.7"><circle r="203.8" fill="url(#g2)"/></mask><g id="t10"><path d="M-153.1 92.7h.01m73.1 27.6h.01m-63.1 -25.6h.01m-3.8 15h.01m55.9 17.8h.01m-32.2 -23h.01m-2.8 21.6h.01m-18.1 -56.1h.01m24.3 38.7h.01m-31.6 -8.9h.01m-30.8 -60.7h.01m12.4 -.3h.01m88.4 99.4h.01m-3.4 -12.6h.01m-87.2 -107.2h.01m25.5 73.1h.01m-16.2 -29.4h.01m22 49.1h.01m30 -17.8h.01m-3.3 57.5h.01m-37.5 -49.4h.01m-40 -53.2h.01m12.9 -9.2h.01m91 86h.01m-71.6 -42.1h.01m-17.5 -17.1h.01m38.7 -47.1h.01m-40.1 8.7h.01m66.6 83.3h.01m-64.3 -57.9h.01m78.3 73.4h.01m-75.5 -98.6h.01m3.7 34.5h.01m77.8 58.1h.01m-1.3 10.5h.01m10.9 -29.9h.01m-42.6 32.3h.01m-17.2 -56.5h.01m-38.1 -33h.01m-5.7 30.2h.01" stroke="#11305a" stroke-width="1.47" stroke-opacity=".9"/><path d="M-112.7 113.5h.01m-77.5 -97h.01m82 93.7h.01m2 -.3h.01m-23.6 -3.8h.01m5.9 -31.8h.01m-34.8 9.1h.01m-7.6 -27.7h.01" stroke="#c9560b" stroke-width="1.47" stroke-opacity=".9"/><path d="M-100.2 120.8h.01m24 6.1h.01m-14.8 -5.7h.01m7.7 14.1h.01m-62.9 -56.7h.01m46.3 30h.01m-69.9 -73.8h.01m45.3 63h.01m-78.1 -76.2h.01m105.9 111.6h.01m-56 -62.4h.01m-34.2 -67.5h.01m2.7 67.3h.01m104.7 59.1h.01m-9.7 -10.2h.01m12.6 1.6h.01m-104.6 -66.8h.01m-28.8 -45.8h.01m81.5 100.2h.01m-63.5 -68.2h.01m37.9 20.5h.01m76.3 64.8h.01m-15.6 -10.3h.01m-11.6 -10.1h.01m-54.8 -23.9h.01m22.1 -5.9h.01m-63 -57.6h.01" stroke="#11305a" stroke-width="2.42"/><path d="M-85.4 130.6h.01m-31 -9.4h.01m-57.9 -59.4h.01m-11.7 -39.4h.01" stroke="#c9560b" stroke-width="2.42"/><defs><g id="d7"><path d="M-117.3 97.2h.01m-29.9 1.5h.01m-52.2 -92h.01m100.5 112.8h.01m9.1 18.2h.01m.9 -3.2h.01m-55.1 -51.1h.01m52.9 47.2h.01m-10.1 -.9h.01m28.6 -7.9h.01m-114.1 -96.2h.01m3.8 15.3h.01" stroke="#11305a"/><path d="M-133.8 87.3h.01m37.3 33.4h.01" stroke="#c9560b"/></g></defs><use href="#d7" stroke-width="12.54" stroke-opacity=".021"/><use href="#d7" stroke-width="9.88" stroke-opacity=".042"/><use href="#d7" stroke-width="7.6" stroke-opacity=".078"/><use href="#d7" stroke-width="5.7" stroke-opacity=".156"/><use href="#d7" stroke-width="3.8"/><defs><g id="d8"><path d="M-148.6 70.4h.01m50.8 65.8h.01" stroke="#11305a"/></g></defs><use href="#d8" stroke-width="19.37" stroke-opacity=".021"/><use href="#d8" stroke-width="15.26" stroke-opacity=".042"/><use href="#d8" stroke-width="11.74" stroke-opacity=".078"/><use href="#d8" stroke-width="8.8" stroke-opacity=".156"/><use href="#d8" stroke-width="5.87"/></g><radialGradient id="g3"><stop offset=".8" stop-color="#fff"/><stop offset="1" stop-color="#fff" stop-opacity="0"/></radialGradient><mask id="k3" maskUnits="userSpaceOnUse" x="-174.7" y="-174.7" width="349.4" height="349.4"><circle r="174.7" fill="url(#g3)"/></mask><g id="t11"><path d="M-154.5 71.5h.01m25.2 44.5h.01m-66.7 -105.1h.01m103.6 122.8h.01m-1.1 -20.7h.01m-17.6 16.6h.01m-87.7 -119.9h.01m95.8 114.1h.01m-70.1 -81.7h.01m-2.9 23h.01m15.7 -29.4h.01m-7.8 12.5h.01m41.8 73.2h.01m24.1 8.1h.01m-69.9 -82.7h.01m43.5 45.2h.01m-48.1 -45.7h.01m76.9 87.3h.01m-91.4 -98h.01m25.5 9.4h.01m-18 -42.8h.01m2.1 27.3h.01m3.4 6.7h.01m32.7 -32.8h.01m45.6 134.1h.01m-24.4 -26.4h.01m41.5 21.8h.01m-17.3 -.3h.01m-107.9 -132.3h.01m113.5 130h.01" stroke="#11305a" stroke-width="2.64" stroke-opacity=".9"/><path d="M-160.1 60.6h.01m74.4 77.5h.01m-81.4 -86.2h.01m42.6 19.7h.01m4.5 39.2h.01m-76.7 -106.9h.01m37 77.6h.01m58.6 48.1h.01" stroke="#c9560b" stroke-width="2.64" stroke-opacity=".9"/><path d="M-87.6 125.6h.01m-89.6 -73h.01m23.1 2.4h.01m-11 2.8h.01m47.3 67.5h.01m10.7 4.5h.01m26.4 -6.4h.01m-30.4 -2h.01m-40.2 -37.6h.01m57.5 37.8h.01m-23.7 8.5h.01m22.6 -8.6h.01m-82.4 -74.9h.01m-2.2 -6.9h.01m68.5 87.8h.01m1.7 2h.01m-84.3 -126.5h.01m19.8 15h.01m5.3 29.2h.01m-.2 5.5h.01m58.2 67h.01m27.5 19.4h.01m-91.5 -107h.01m-18.6 -24h.01m4.7 9.8h.01m92.9 114.5h.01" stroke="#11305a" stroke-width="4.35"/><path d="M-86 132.9h.01m-117.1 -92.7h.01" stroke="#c9560b" stroke-width="4.35"/><defs><g id="d9"><path d="M-177.9 53.1h.01m54 42.4h.01m23.8 30.9h.01" stroke="#11305a"/><path d="M-88.5 137.7h.01" stroke="#c9560b"/></g></defs><use href="#d9" stroke-width="22.57" stroke-opacity=".021"/><use href="#d9" stroke-width="17.78" stroke-opacity=".042"/><use href="#d9" stroke-width="13.68" stroke-opacity=".078"/><use href="#d9" stroke-width="10.26" stroke-opacity=".156"/><use href="#d9" stroke-width="6.84"/><defs><g id="d10"><path d="M-94.4 128.6h.01m-82.3 -91.9h.01m-21.4 -17.4h.01m48.2 48.3h.01m55.2 65.4h.01" stroke="#11305a"/></g></defs><use href="#d10" stroke-width="34.88" stroke-opacity=".021"/><use href="#d10" stroke-width="27.48" stroke-opacity=".042"/><use href="#d10" stroke-width="21.14" stroke-opacity=".078"/><use href="#d10" stroke-width="15.86" stroke-opacity=".156"/><use href="#d10" stroke-width="10.57"/></g><g id="t12"><path d="M-105.7 123.6h.01m-50.4 -73.5h.01m-36.5 -25.2h.01m98.8 104.9h.01m-88.2 -121.1h.01m1.6 42.4h.01m29.3 37.9h.01m47 15.6h.01m-50.7 -43.3h.01m-28.7 -23.6h.01m33.5 55.8h.01m74.7 31.2h.01m-16.6 .6h.01m-102.9 -22.3h.01m29.5 -50h.01m59.7 48.9h.01m-88.5 -84.4h.01m-.2 12.3h.01m49.3 69.9h.01m51.8 30.9h.01m-79.5 -74h.01m35.5 54.7h.01m-52.6 -106.9h.01m27.1 60.1h.01m60 58.2h.01m-20.7 -10.2h.01m16.3 9.5h.01m-45.9 -30.2h.01m61.9 29.2h.01m-61.3 -39.5h.01m60 46.4h.01m-46 -30h.01m22.2 -25.9h.01m-53.4 -70.6h.01m85.1 115.6h.01m-63.2 -13.1h.01m7.6 -14.1h.01" stroke="#11305a" stroke-width="1.47" stroke-opacity=".9"/><path d="M-85.3 113.5h.01m-123.5 -82.4h.01m69.8 66.1h.01m-26 -59.5h.01m-13.1 37.3h.01" stroke="#c9560b" stroke-width="1.47" stroke-opacity=".9"/><path d="M-186.1 65.9h.01m-11.2 -25.3h.01m64.5 66.9h.01m-9.1 -4.1h.01m51.1 21.5h.01m-24.9 -13.4h.01m-31.5 -20.6h.01m40.9 24.4h.01m-4.4 5.7h.01m-11.5 -15h.01m27 32.5h.01m-90.7 -117.1h.01m109.2 111h.01m-40.1 -7.4h.01m-53.2 -84.1h.01m72.5 55.3h.01" stroke="#11305a" stroke-width="2.42"/><path d="M-103.8 125h.01m-59.4 -76.9h.01m-1.6 10.6h.01" stroke="#c9560b" stroke-width="2.42"/><defs><g id="d11"><path d="M-162.7 57.9h.01m51.1 44.9h.01m-.8 20.6h.01m-25.8 -27.6h.01m-44.5 -41.5h.01m-3.3 -37.6h.01m1 15.5h.01m14.9 11h.01m25.1 64.4h.01" stroke="#11305a"/><path d="M-79.6 127.9h.01m-8.1 8.5h.01m-87.3 -65.4h.01" stroke="#c9560b"/></g></defs><use href="#d11" stroke-width="12.54" stroke-opacity=".021"/><use href="#d11" stroke-width="9.88" stroke-opacity=".042"/><use href="#d11" stroke-width="7.6" stroke-opacity=".078"/><use href="#d11" stroke-width="5.7" stroke-opacity=".156"/><use href="#d11" stroke-width="3.8"/><defs><g id="d12"><path d="M-160.4 66.6h.01m61.6 59.1h.01" stroke="#11305a"/></g></defs><use href="#d12" stroke-width="19.37" stroke-opacity=".021"/><use href="#d12" stroke-width="15.26" stroke-opacity=".042"/><use href="#d12" stroke-width="11.74" stroke-opacity=".078"/><use href="#d12" stroke-width="8.8" stroke-opacity=".156"/><use href="#d12" stroke-width="5.87"/></g><radialGradient id="g4"><stop offset=".337" stop-color="#fff" stop-opacity="0"/><stop offset=".449" stop-color="#fff"/><stop offset=".8" stop-color="#fff"/><stop offset="1" stop-color="#fff" stop-opacity="0"/></radialGradient><mask id="k4" maskUnits="userSpaceOnUse" x="-174.7" y="-174.7" width="349.4" height="349.4"><circle r="174.7" fill="url(#g4)"/></mask><g id="t20"><path d="M-150.9 84.6h.01m-59 -36.1h.01m133.5 70.6h.01m-69.7 -50.8h.01m59.5 51.2h.01m-111.9 -78.4h.01m35.2 19h.01m24.1 25.2h.01m-8.2 -.3h.01m-26.3 -66.9h.01m23.7 75.3h.01m60.1 8.2h.01m-99.4 -44.3h.01m8.2 -47.8h.01m0 18.7h.01m-14.5 24.5h.01m54.9 46.4h.01m-16.1 -9.7h.01m64.4 16.3h.01m-7.6 9.6h.01m-45.8 -30.9h.01m-39 -75h.01m10 74.3h.01m80.5 23.5h.01m3.9 13.7h.01m-71.4 -65.6h.01m13.9 9.7h.01m-3.8 .9h.01m-12.6 -11.5h.01m.6 3.6h.01m29.5 -24.2h.01m-29.3 38.3h.01m9.4 12.2h.01m12 9.5h.01m10 4.5h.01m46.3 19.3h.01m-96.5 -90.2h.01m10.7 48.8h.01m102.4 32.8h.01m-135.3 -83.7h.01m28.7 12.7h.01m59.4 56.5h.01m-42.8 -19.2h.01m-8.2 8.5h.01m14.6 7.3h.01m87.4 17.9h.01m-76.9 -30h.01m47.7 49h.01m-106.9 -92.6h.01m-3.1 -14.5h.01m34.8 -15.5h.01m77.2 149.3h.01m8.7 -24.6h.01" stroke="#11305a" stroke-width="1.47" stroke-opacity=".9"/><path d="M-159 61.2h.01m25.6 25.7h.01" stroke="#c9560b" stroke-width="1.47" stroke-opacity=".9"/><path d="M-165 73.3h.01m-6.1 -7.7h.01m7.2 -8.3h.01m33.1 29.1h.01m-69.4 -51.4h.01m56.8 60.8h.01m76.4 16.7h.01m-89.2 -35.4h.01m11.2 4.7h.01m21 25.7h.01m-68.3 -82.8h.01m11.3 31.5h.01m72.2 49.3h.01m-59.2 -55.5h.01m9.2 39.8h.01m43.9 25.1h.01m-34 -51.1h.01m57.5 59.1h.01m8.2 2.8h.01m-16.1 -3.8h.01m-87.4 -70.8h.01m43.7 62h.01" stroke="#11305a" stroke-width="2.42"/><path d="M-169.4 66.7h.01m5.7 44.9h.01m59.9 16h.01" stroke="#c9560b" stroke-width="2.42"/><defs><g id="d13"><path d="M-193.8 1.9h.01m33.8 64.5h.01m29.7 25.8h.01m-73.3 -63.7h.01m35.5 22.5h.01m-5.6 28.9h.01m23.9 -9.1h.01m-24.2 6h.01m26.5 19h.01" stroke="#11305a"/><path d="M-127 116.1h.01m-29.1 -42.8h.01m9.1 28.5h.01" stroke="#c9560b"/></g></defs><use href="#d13" stroke-width="12.54" stroke-opacity=".021"/><use href="#d13" stroke-width="9.88" stroke-opacity=".042"/><use href="#d13" stroke-width="7.6" stroke-opacity=".078"/><use href="#d13" stroke-width="5.7" stroke-opacity=".156"/><use href="#d13" stroke-width="3.8"/><defs><g id="d14"><path d="M-85.9 119.5h.01m-11.8 -2.6h.01" stroke="#11305a"/><path d="M-79.3 132.2h.01" stroke="#c9560b"/></g></defs><use href="#d14" stroke-width="19.37" stroke-opacity=".021"/><use href="#d14" stroke-width="15.26" stroke-opacity=".042"/><use href="#d14" stroke-width="11.74" stroke-opacity=".078"/><use href="#d14" stroke-width="8.8" stroke-opacity=".156"/><use href="#d14" stroke-width="5.87"/></g><radialGradient id="g5"><stop offset=".8" stop-color="#fff"/><stop offset="1" stop-color="#fff" stop-opacity="0"/></radialGradient><mask id="k5" maskUnits="userSpaceOnUse" x="-131" y="-131" width="262.1" height="262.1"><circle r="131" fill="url(#g5)"/></mask><g id="t21"><path d="M-180.3 5.1h.01m20.7 51.7h.01m43.9 54.2h.01m-59.3 -50h.01m16.4 23.4h.01m71.8 31.1h.01m-94.7 -73.3h.01m65.8 72.5h.01m-96.5 -87.1h.01m14.5 4.6h.01m30.5 -6.2h.01m6.8 42.1h.01m-44.4 -50.1h.01m96.6 82.6h.01m-62 -60.4h.01m-44.8 -36h.01m72.7 87.1h.01m-27.5 -73h.01m5.4 31.3h.01m69.7 64.4h.01m-55.3 -20h.01m-32.1 -49.8h.01m-12.5 -24.6h.01m68 83h.01m14.6 13.7h.01m.2 -1.5h.01m-67.4 -72.8h.01m97.5 84.9h.01m-79.1 -107.8h.01m-9.2 71h.01m20.9 -36.8h.01m-34.9 -8.5h.01" stroke="#11305a" stroke-width="2.64" stroke-opacity=".9"/><path d="M-132.8 108.2h.01m-57.9 -71.3h.01m3.5 -9.4h.01m-15.3 -19.7h.01" stroke="#c9560b" stroke-width="2.64" stroke-opacity=".9"/><path d="M-195.4 107.6h.01m2.9 -72h.01m27.3 33h.01m-25.3 -19.2h.01m-1.6 -10.1h.01m57.4 65.9h.01m-52.3 -54.7h.01m-5.2 -23.7h.01m.1 -4.2h.01m98.8 84.9h.01m-109.3 -71.5h.01m117.3 88.9h.01m-56.4 -19.3h.01m-45.9 -91.3h.01m22.3 52.1h.01m-15.5 -27.1h.01m-32.5 -2.7h.01m25 5.9h.01m45.8 56.8h.01m2.9 -11.5h.01m-1.2 10.7h.01m-51.4 -91.1h.01m73 94.8h.01m7.5 -1.3h.01m32 15.8h.01m-103.2 -83.5h.01" stroke="#11305a" stroke-width="4.35"/><path d="M-154.9 76.2h.01m-13.6 -61.5h.01m31.7 80.4h.01m-61 -66.1h.01m-3.1 -23h.01" stroke="#c9560b" stroke-width="4.35"/><defs><g id="d15"><path d="M-99.1 124.4h.01m-67.4 -72h.01m-20.8 -17.9h.01m82.6 84.8h.01" stroke="#11305a"/><path d="M-189.2 30.2h.01" stroke="#c9560b"/></g></defs><use href="#d15" stroke-width="22.57" stroke-opacity=".021"/><use href="#d15" stroke-width="17.78" stroke-opacity=".042"/><use href="#d15" stroke-width="13.68" stroke-opacity=".078"/><use href="#d15" stroke-width="10.26" stroke-opacity=".156"/><use href="#d15" stroke-width="6.84"/><defs><g id="d16"><path d="M-176.1 40.1h.01m102.9 84h.01m-75.8 -37.2h.01" stroke="#11305a"/></g></defs><use href="#d16" stroke-width="34.88" stroke-opacity=".021"/><use href="#d16" stroke-width="27.48" stroke-opacity=".042"/><use href="#d16" stroke-width="21.14" stroke-opacity=".078"/><use href="#d16" stroke-width="15.86" stroke-opacity=".156"/><use href="#d16" stroke-width="10.57"/></g><g id="t22"><path d="M-91.4 127.3h.01m-7.6 -7h.01m-32.4 -14.8h.01m28 13.8h.01m-99 -117.2h.01m13.5 33.3h.01m84.4 81.1h.01m-29.2 -43.4h.01m-22.6 18.9h.01m62.6 -8.3h.01m-34.2 24.3h.01m-5 -29.2h.01m58.2 43h.01m-124.1 -74.9h.01m-3.6 14.4h.01m4.2 -43h.01m85.6 110.3h.01m-40.3 -50.2h.01m35 34.6h.01m38.3 18.1h.01m-8.9 -12.3h.01m-66.1 25.4h.01m28.2 -52.8h.01m43.3 27.9h.01m-106.3 -113.9h.01m25.7 53.4h.01m46.6 72.6h.01m21.2 -1.8h.01m-111.1 -127.4h.01m11.8 8.5h.01" stroke="#11305a" stroke-width="1.47" stroke-opacity=".9"/><path d="M-107.5 110.2h.01m-77.3 -81.3h.01m69.2 68.5h.01m-37.8 -68.9h.01m-13.2 21.8h.01m-38.8 -39.7h.01m123.4 124h.01m-106.5 -114.5h.01m108.7 80.1h.01" stroke="#c9560b" stroke-width="1.47" stroke-opacity=".9"/><path d="M-136.4 119.2h.01m-39.1 -61.8h.01m86.2 67h.01m-74.6 -63.3h.01m-17.3 -6.8h.01m.2 -18.3h.01m106.8 89.3h.01m1.4 -.5h.01m-118 -83.7h.01m53.4 60h.01m50.3 27.8h.01m-84.9 -97.5h.01m-.3 22.4h.01m96.7 56.9h.01m.9 17h.01m-70.9 -6.1h.01m-17.1 -65.2h.01m-13.3 7.7h.01m72.4 60.5h.01m-62.6 -92.9h.01" stroke="#11305a" stroke-width="2.42"/><path d="M-140.2 84.7h.01m-41.4 -27.5h.01" stroke="#c9560b" stroke-width="2.42"/><defs><g id="d17"><path d="M-202.6 2.7h.01m31.5 30.4h.01m-26.8 -9.8h.01m72.6 89.2h.01m-63.4 -90.4h.01m44.2 81.9h.01m9.2 5.1h.01m-53.3 -68.5h.01m107 92.1h.01m-56.3 -30.2h.01" stroke="#11305a"/><path d="M-187.6 17.9h.01m17.6 27.3h.01" stroke="#c9560b"/></g></defs><use href="#d17" stroke-width="12.54" stroke-opacity=".021"/><use href="#d17" stroke-width="9.88" stroke-opacity=".042"/><use href="#d17" stroke-width="7.6" stroke-opacity=".078"/><use href="#d17" stroke-width="5.7" stroke-opacity=".156"/><use href="#d17" stroke-width="3.8"/><defs><g id="d18"><path d="M-191.2 23.4h.01" stroke="#11305a"/><path d="M-130.4 105.3h.01" stroke="#c9560b"/></g></defs><use href="#d18" stroke-width="19.37" stroke-opacity=".021"/><use href="#d18" stroke-width="15.26" stroke-opacity=".042"/><use href="#d18" stroke-width="11.74" stroke-opacity=".078"/><use href="#d18" stroke-width="8.8" stroke-opacity=".156"/><use href="#d18" stroke-width="5.87"/></g><radialGradient id="g6"><stop offset=".449" stop-color="#fff" stop-opacity="0"/><stop offset=".598" stop-color="#fff"/><stop offset=".8" stop-color="#fff"/><stop offset="1" stop-color="#fff" stop-opacity="0"/></radialGradient><mask id="k6" maskUnits="userSpaceOnUse" x="-131" y="-131" width="262.1" height="262.1"><circle r="131" fill="url(#g6)"/></mask><path id="l73" d="M200 10q-42 0-74-8-31-7-63-24v-109h13l25 51q13 29 37 44 25 15 64 15 43 0 67-21 24-21 24-58 0-41-27-60-26-20-80-44-55-24-83-52-28-27-28-78 0-35 19-64 20-28 51-45 31-17 65-17 37 0 68 9 30 9 57 23v106h-13l-25-49q-14-30-37-43-23-14-48-14-36 0-56 20-21 19-21 52 0 35 23 54 24 19 72 40 34 15 62 30 28 16 44 41 17 25 17 69 0 40-22 70-22 29-57 46-35 16-74 16z"/><path id="l65" d="M262 10q-67 0-114-28-48-28-73-78-25-49-25-114 0-71 29-128 29-56 77-89 48-33 104-33 79 0 124 54 45 54 48 152l-4 4h-311q0 4 0 8 0 52 18 96 18 43 57 69 39 26 101 26 72 0 136-45h3v11q-23 40-67 67-44 28-103 28zM245-425q-48 0-82 37-34 36-43 102h245q-11-70-40-104-29-35-80-35z"/><path id="l72" d="M56 0v-16l63-25v-332l-65-34v-11l117-42h8l8 95h2q47-54 77-73 31-20 58-20 19 0 31 8 12 9 12 26 0 3-1 8 0 6-2 14l-5 29-96-17q-45 21-76 64v285l73 25v16z"/><path id="l76" d="M218 2l-175-410-66-26v-16h220v16l-80 24v5l129 308h3l119-304v-5l-76-28v-16h188v16l-69 28-177 408z"/><path id="l6f" d="M264 10q-64 0-112-31-48-31-75-84-27-53-27-120 0-67 27-120 27-53 75-84 48-31 112-31 64 0 112 31 48 31 75 84 27 53 27 120 0 67-27 120-27 53-75 84-48 31-112 31zM278-25q43 0 71-26 28-26 41-67 14-41 14-87 0-58-16-109-17-50-50-81-34-31-86-31-43 0-72 25-28 25-42 66-14 41-14 89 0 58 17 108 17 51 51 82 34 31 86 31z"/><path id="l78" d="M26 0v-16l56-27 129-181-128-185-52-25v-16h195v16l-66 24v5l96 138 85-134v-5l-56-28v-16h156v16l-54 29-116 160 142 204 45 25v16h-182v-16l59-24v-5l-108-156-95 152v5l59 28v16z"/><path id="i46" d="M10 0l3-16 83-40 96-548-69-40 3-16h455l-30 172h-16l-38-122h-218l-43 244h151l62-85h16l-39 219h-16l-31-84h-152l-46 260 89 40-3 16z"/><path id="i75" d="M159 10q-37 0-61-29-23-29-23-79 0-10 1-20 2-10 3-20l45-251-78-35v-6l160-30h4l-52 306q-4 25-4 36 0 28 14 48 13 19 44 19 21 0 42-15 22-15 42-36 20-21 36-39l43-248-69-35v-6l152-30h4l-60 341q-5 30-2 43 4 13 19 13 17 0 37-19 20-18 38-56l13 6q-29 75-63 108-33 34-68 34-35 0-48-27-12-27-5-72l1-6h-3q-34 38-59 61-25 23-48 34-24 10-55 10z"/><path id="i6c" d="M101 10q-35 0-47-27-13-27-6-72l103-591-87-34v-6l173-30h3l-111 631q-5 30-1 43 3 13 16 13 17 0 37-19 20-18 38-56l13 6q-29 75-62 108-34 34-69 34z"/><path id="i2d" d="M40-229l10-56h260l-10 56z"/><path id="i73" d="M302-127q0 32-22 63-22 32-62 53-41 21-97 21-24 0-52-10-28-9-47-25-20-16-20-35 0-8 4-14 3-5 9-10l23-22 79 80q8 1 14 1 50 0 78-23 28-23 28-55 0-26-15-48-16-22-69-53-53-32-71-60-18-27-18-68 0-30 22-60 23-29 62-48 38-20 87-20 50 0 77 18 28 17 28 40 0 9-7 16l-23 25-76-66q-5 0-10 0-45 0-69 21-24 20-24 52 0 15 5 28 6 14 24 29 18 15 53 37 53 32 71 61 18 29 18 72z"/><path id="i74" d="M131 10q-33 0-50-22-17-21-17-58 0-8 2-18 1-10 2-20l53-298h-74v-6l85-38 86-110h6l-19 110h125v44h-133l-45 254q-2 13-3 24-1 10-1 18 0 24 8 34 8 10 21 10 23 0 49-26 27-26 49-75l13 6q-33 94-74 133-40 38-83 38z"/><path id="i61" d="M136 10q-40 0-64-34-25-35-25-104 0-62 19-121 20-59 54-107 35-48 80-76 45-28 96-28 25 0 48 6 23 6 41 16l35-22h25l-61 341q-5 30-2 43 4 13 17 13 17 0 37-19 20-18 38-56l13 6q-29 75-63 108-33 34-68 34-35 0-48-27-13-27-5-72l5-26h-4q-37 58-80 91-42 34-88 34zM123-167q0 56 13 83 12 28 47 28 24 0 48-16 24-16 46-41 22-25 39-51l37-206q-19-25-39-38-19-13-47-13-43 0-75 37-33 37-51 95-18 58-18 122z"/><path id="i63" d="M380-140q-43 76-87 113-44 37-95 37-72 0-110-44-38-43-38-126 0-53 21-106 21-52 57-96 36-45 82-72 46-26 97-26 32 0 53 14 22 13 34 31 11 18 11 31 0 17-14 25l-36 23-56-86q-31 0-62 18-31 19-57 50-25 32-40 72-15 40-15 83 0 70 25 109 24 38 79 38 17 0 38-6 21-7 46-28 25-20 55-62h2z"/><path id="i6b" d="M30 0l119-678-78-35v-6l164-30h3l-132 749zM338 10q-23 0-37-12-14-12-25-32-11-20-25-45l-95-173v-5q65-68 106-109 40-40 64-60 23-21 38-28 15-6 30-6 24 0 36 10 13 11 13 21 0 2-1 7-1 4-4 11l-15 38-65-24q-13 6-25 16l-110 96 101 176q15 25 26 35 11 11 24 11 18 0 32-19 15-18 33-56l13 6q-31 76-55 109-24 33-59 33z"/><path id="i64" d="M139 10q-40 0-65-34-24-35-24-104 0-62 20-121 19-59 54-107 34-48 79-76 45-28 96-28 36 0 69 13l41-233-87-34v-6l173-30h3l-111 631q-5 30-1 43 3 13 16 13 17 0 37-19 20-18 38-56l13 6q-29 75-62 108-34 34-69 34-35 0-48-27-13-27-5-72l5-26h-4q-84 125-168 125zM126-167q0 63 14 87 15 24 46 24 29 0 65-30 36-29 68-78l36-205q-21-28-41-40-19-12-44-12-40 0-72 35-33 35-52 92-20 58-20 127z"/><path id="i65" d="M199 10q-76 0-113-42-36-43-36-116 0-59 20-114 19-56 54-100 34-45 80-72 45-26 98-26 50 0 76 23 25 23 25 54 0 34-24 63-24 28-83 52-60 23-168 41-2 20-2 42 0 61 26 97 26 36 82 36 33 0 65-18 32-19 66-59h2l10 8q-34 59-81 95-48 36-97 36zM275-425q-54 0-91 45-38 44-51 117 75-13 117-28 42-15 59-35 17-21 17-52 0-20-13-34-13-13-38-13z"/><path id="i76" d="M197 0l-89-394-85-30v-6l148-30h3l76 349h4l77-118q25-39 40-71 15-32 16-66l-56-48 27-33q11-13 24-13 22 0 42 24 19 25 19 55 0 24-15 57-16 34-57 96l-153 228z"/><path id="i6f" d="M220 10q-87 0-128-54-42-55-42-140 0-47 17-96 17-48 49-89 32-41 76-66 44-25 97-25 87 0 129 54 41 54 41 140 0 45-17 94-16 48-48 90-31 41-75 66-44 26-99 26zM231-28q44 0 75-34 32-33 49-88 17-56 17-122 0-74-20-112-19-39-72-39-42 0-74 31-33 30-51 84-18 54-18 127 0 74 20 113 20 40 74 40z"/><path id="i70" d="M-27 230v-16l55-28 102-575-78-35v-6l142-30h3v125h4q38-58 80-91 42-34 88-34 40 0 65 35 24 35 24 103 0 62-20 121-19 59-54 107-34 48-79 76-45 28-96 28-19 0-37-4-18-3-33-9l-31 188 80 29v16zM322-394q-24 0-48 16-24 16-46 41-22 25-40 52l-35 203q19 26 37 40 19 13 48 13 43 0 76-37 32-37 50-95 18-58 18-122 0-56-12-83-13-28-48-28z"/><path id="i72" d="M43 0l69-389-78-35v-6l141-30h3v123h4q30-51 50-77 21-27 38-36 16-10 34-10 20 0 34 10 14 11 14 23 0 9-4 18l-18 46-67-24q-19 9-41 35-21 27-56 84l-47 268z"/><path id="ib7" d="M118-214q-25 0-36-14-12-14-12-36 0-26 17-46 17-19 44-19 25 0 37 14 11 14 11 36 0 25-17 45-16 20-44 20z"/><path id="i53" d="M177 10q-58 0-97-12-39-11-80-34l19-164h16l39 117q27 27 54 39 28 12 57 12 71 0 107-42 36-41 36-107 0-41-26-70-27-29-96-67-56-32-82-68-26-36-26-85 0-57 31-102 31-45 79-71 49-26 102-26 44 0 80 11 35 11 69 31l-18 160h-16l-37-116q-17-17-40-30-22-12-57-12-31 0-57 16-27 17-44 47-16 30-16 71 0 36 22 62 23 27 76 57 52 29 82 55 30 25 44 54 13 28 13 65 0 62-33 109-33 47-86 74-54 26-115 26z"/><path id="i67" d="M208-153q-30 0-55-9-23 11-33 28-9 16-9 34 0 20 20 31 20 11 51 18 32 7 68 15 36 7 68 20 31 12 51 34 20 21 20 57 0 40-25 78-25 38-74 63-50 24-126 24-89 0-132-30-42-29-42-72 0-31 10-50 9-18 31-40l80-45v-2q-31-9-51-25-21-16-21-47 0-21 5-35 5-14 19-30l67-34v-3q-27-16-42-43-16-28-16-63 0-42 24-84 25-42 68-69 43-28 97-28 27 0 56 10h151v44h-89l-4 3q21 28 21 74 0 28-13 59-13 30-38 57-25 27-59 43-35 17-78 17zM226-192q28 0 50-21 21-21 34-51 12-31 12-61 0-44-20-70-21-26-56-26-30 0-52 19-23 20-35 50-12 30-12 62 0 43 21 70 22 28 58 28zM65 127q0 37 32 59 32 23 84 23 69 0 102-31 33-31 33-74 0-28-16-44-17-17-44-26-27-9-58-14-32-6-62-13-46 32-58 61-13 30-13 59z"/><path id="i54" d="M133 0l4-16 101-40 99-554h-155l-91 152h-16l35-202h555l-36 202h-16l-38-152h-152l-99 554 88 40-3 16z"/><path id="i68" d="M106 0h-76l119-678-78-35v-6l164-30h3l-69 394h2q35-39 61-62 27-23 52-33 26-10 58-10 49 0 76 40 26 40 14 108l-35 193q-5 30-1 43 3 13 16 13 17 0 37-19 20-18 38-56l13 6q-29 75-62 108-34 34-69 34-35 0-48-27-13-27-5-72l39-220q5-35-9-63-13-27-57-27-22 0-45 15-23 14-45 34-22 21-38 39z"/><path id="i66" d="M50-406v-44h85l3-23q4-28 19-65 15-36 39-73 24-37 56-69 32-31 70-50 37-20 79-20 27 0 43 10 15 10 15 21 0 6-5 18l-17 39-103-44q-47 28-76 84-29 57-43 150l-3 22h113v44h-120l-54 372q-7 48-31 96-24 49-57 89-33 40-69 65-36 24-66 24-22 0-38-10-17-11-17-25 0-5 6-17l16-34 81 36q37-25 62-77 24-52 36-137l54-382z"/><path id="i69" d="M196-585q-23 0-40-17-17-17-17-40 0-23 17-40 17-17 40-17 23 0 40 17 17 17 17 40 0 23-17 40-17 17-40 17zM125 10q-35 0-48-27-13-27-5-72l53-301-87-34v-6l173-30h3l-61 341q-5 30-1 43 3 13 16 13 17 0 37-19 20-18 38-56l13 6q-29 75-62 108-34 34-69 34z"/><path id="i6e" d="M43 0l69-389-78-35v-6l142-30h3v105h4q36-39 63-62 26-23 52-33 25-10 57-10 49 0 75 40 27 40 15 108l-35 193q-5 30-2 43 4 13 17 13 17 0 37-19 20-18 38-56l13 6q-29 75-63 108-33 34-68 34-35 0-48-27-13-27-5-72l39-220q5-35-8-63-14-27-58-27-22 0-46 15-23 15-45 36-22 20-39 39l-53 309z"/><path id="i2e" d="M83 5q-25 0-37-14-11-14-11-36 0-26 17-45 17-20 44-20 25 0 36 14 12 14 12 36 0 25-16 45-17 20-45 20z"/><path id="i55" d="M342 10q-96 0-156-47-60-47-60-149 0-17 2-34 2-17 5-36l61-348-69-40 3-16h238l-4 16-82 40-59 333q-4 19-7 39-2 20-2 36 0 81 41 117 41 36 115 36 42 0 81-21 39-21 68-64 29-43 40-108l65-370-89-38 4-16h236l-3 16-82 39-61 349q-16 95-56 154-40 59-99 86-58 26-130 26z"/><path id="m64" d="M214 10q-49 0-88-25-39-25-62-71-23-45-23-108 0-85 33-144 32-60 86-92 55-31 121-31 27 0 47 2 21 2 39 6v-183l-66-51v-8l153-55h7v705l71 29v16h-155l-9-51h-6q-38 32-73 47-35 14-75 14zM136-219q0 82 41 119 41 38 98 38 48 0 92-28v-282q-22-19-43-30-22-10-50-10-37 0-68 19-32 19-51 61-19 42-19 113z"/><path id="m65" d="M259 10q-98 0-155-59-57-59-57-157 0-74 31-132 30-58 80-90 51-33 110-33 79 0 124 55 46 54 47 156l-5 5h-295q1 46 17 85 17 39 54 63 37 24 98 24 58 0 129-38h3v12q-24 46-71 77-47 32-110 32zM250-417q-44 0-72 33-29 33-36 93h212q-10-67-36-97-26-29-68-29z"/><path id="m6d" d="M44 0v-16l64-32v-299l-61-50v-8l138-56h7l9 74h5q37-38 71-56 34-18 76-18 48 0 83 21 34 22 44 64h3q41-43 77-64 36-21 81-21 58 0 95 29 36 30 36 89v295l64 32v16h-225v-16l67-32v-249q0-43-25-65-25-21-64-21-31 0-59 11-28 10-47 29v295l65 32v16h-222v-16l63-32v-249q0-43-25-65-24-21-63-21-24 0-53 9-28 8-46 24v302l61 32v16z"/><path id="m6f" d="M271 10q-67 0-117-31-51-31-80-85-28-53-28-120 0-66 28-120 29-53 80-84 50-31 117-31 67 0 117 31 51 31 79 84 28 54 28 120 0 67-28 120-28 54-79 85-50 31-117 31zM284-34q38 0 62-25 24-25 35-64 11-39 11-83 0-53-14-102-13-48-42-79-29-31-76-31-39 0-64 24-24 25-36 64-11 39-11 83 0 54 14 103 14 48 44 79 30 31 77 31z"/><path id="m2d" d="M49-222v-70h275v70z"/><path id="m69" d="M157-577q-27 0-45-18-18-18-18-45 0-28 18-46 18-17 45-17 27 0 45 17 18 18 18 46 0 27-18 45-18 18-45 18zM49 0v-16l64-32v-299l-61-51v-8l148-55h7v413l62 32v16z"/><path id="m6e" d="M44 0v-16l64-32v-299l-61-50v-8l138-56h7l9 74h5q38-38 73-56 35-18 79-18 59 0 97 29 38 30 38 89v295l63 32v16h-224v-16l66-32v-249q0-43-26-65-26-21-67-21-25 0-55 9-29 8-48 24v302l66 32v16z"/><path id="m63" d="M258 10q-97 0-154-59-57-59-57-157 0-74 33-132 33-58 90-90 57-33 127-33 44 0 75 13 32 13 48 31 17 18 17 32 0 17-19 33l-35 27-77-94q-8-1-15-1-46 0-81 24-34 23-52 62-19 40-19 88 0 83 45 128 44 45 122 45 57 0 128-38h3v12q-23 45-69 77-47 32-110 32z"/><path id="m74" d="M211 10q-48 0-81-26-34-26-34-73v-316h-80v-8l87-38 78-110h9v110h133v46h-133v297q0 25 22 38 23 12 54 12 19 0 35-2 16-2 29-5h3v12q-12 23-43 43-32 20-79 20z"/><path id="m61" d="M155 10q-49 0-80-28-31-29-31-78 0-50 36-85 35-35 122-56l96-23v-70q0-36-24-60-25-24-60-24-14 0-28 3-14 3-35 13v94h-67q-17 0-24-8-6-7-6-26 0-29 25-58 25-28 68-46 43-19 96-19 74 0 112 30 38 30 38 83v279q6 8 19 13 13 4 35 4h35l4 2v6q-12 21-36 38-25 16-60 16-34 0-55-17-21-17-30-45h-7q-26 27-64 44-38 18-79 18zM135-119q0 62 73 62 22 0 43-5 21-4 47-15v-148q-73 14-108 30-34 16-44 35-11 18-11 41z"/><path id="m62" d="M100 9v-645l-61-51v-8l148-55h7v350h4q73-61 149-61 49 0 88 25 39 26 62 74 23 49 23 115 0 81-32 139-31 57-84 88-53 30-119 30-42 0-78-8-36-7-67-21l-33 28zM286-389q-48 0-92 27v284q25 21 51 30 26 9 58 9 33 0 61-18 27-18 44-59 17-40 17-107 0-87-41-127-42-39-98-39z"/><path id="m72" d="M47 0v-16l64-32v-298l-61-51v-8l138-56h8l9 92h4q36-49 67-69 30-21 59-21 22 0 37 11 14 11 14 32 0 6-3 22l-9 41-103-21q-38 15-65 53v273l73 32v16z"/><path id="m75" d="M223 10q-59 0-97-30-37-30-37-88v-296l-64-31v-16h158v297q0 42 26 64 26 22 66 22 25 0 55-8 30-9 48-25v-303l-68-31v-16h163v406l69 29v16h-164v-63h-5q-37 37-72 55-35 18-78 18z"/><path id="m67" d="M255-163q-23 0-45-5-33 15-42 30-9 16-9 30 0 17 13 29 14 12 45 12h130q74 0 109 33 35 34 35 99 0 44-28 84-28 40-81 65-53 26-127 26-58 0-96-19-38-19-56-50-18-31-18-68 0-12 3-23 2-10 7-20l64-48v-1q-35-10-53-34-19-24-19-56 0-24 11-52l77-49q-40-19-64-54-24-35-24-79 0-41 23-75 22-34 60-54 38-19 85-19 22 0 47 5 25 6 39 14l156-9v55l-107-6-2 1q15 17 25 41 10 23 10 47 0 43-22 77-22 34-60 54-38 19-86 19zM264-205q34 0 54-30 20-30 20-75 0-51-26-81-25-30-62-30-36 0-56 30-21 30-21 76 0 50 25 80 26 30 66 30zM158 83q0 53 32 89 33 35 85 35 60 0 97-33 38-32 38-75 0-39-19-61-19-22-82-22h-105q-1 0-2 0-24 8-34 26-10 18-10 41z"/><path id="m73" d="M212 10q-48 0-82-8-34-9-70-27v-112h15l32 54q33 55 102 55 40 0 61-18 22-18 22-50 0-26-13-42-13-16-39-28-25-12-62-29-52-23-80-51-27-28-27-77 0-39 21-70 22-31 56-49 34-19 72-19 36 0 68 9 32 8 63 24v111h-14l-33-52q-33-52-81-52-33 0-53 17-20 16-20 45 0 32 23 49 23 18 74 40 28 13 56 28 28 14 47 40 19 25 19 72 0 46-25 77-24 31-60 47-36 16-72 16z"/><path id="m6b" d="M44 0v-16l64-32v-588l-61-51v-8l148-55h7v494l159-137v-6l-49-36v-16h195v16l-64 35-158 122 197 228 64 34v16h-147l-36-52-161-188v195l70 29v16z"/><path id="m6c" d="M41 0v-16l63-32v-588l-60-51v-8l147-55h8v702l62 32v16z"/><path id="m31" d="M152 0v-16l91-39v-504l-173 85v-36l242-150h30v605l82 39v16z"/><path id="m33" d="M249 10q-61 0-110-19-49-19-77-49-28-30-28-64 0-21 6-28 7-7 25-7h67v91q44 29 115 29 61 0 95-37 35-38 35-98 0-68-36-108-36-39-128-39h-58v-45h33q67 0 111-38 44-37 44-104 0-62-27-90-26-27-74-27-20 0-44 5-23 6-47 23v106h-68q-17 0-23-7-7-8-7-28 0-34 29-68 28-34 76-56 49-22 110-22 55 0 97 21 42 21 65 57 24 35 24 80 0 51-40 94-41 42-112 60 95 14 141 62 46 48 46 119 0 50-32 93-32 42-87 68-54 26-121 26z"/><path id="m37" d="M89 0q21-49 41-92 19-42 42-87 22-45 52-99 29-55 70-126 40-71 96-167h-337v-89h419v24q-36 69-76 148-39 79-76 162-38 82-68 165-29 83-44 161z"/><path id="m66" d="M50 0v-16l64-32v-357h-78v-46h78v-31q0-40 20-86 21-46 56-87 34-41 78-67 43-27 89-27 29 0 41 9 12 10 12 24 0 4-2 10-1 6-2 12l-11 41-124-29q-28 20-45 66-18 46-18 109v56h129v46h-129v359l73 30v16z"/><path id="m78" d="M24 0v-16l54-34 132-170-135-185-47-30v-16h222v16l-65 29v6l89 121 80-115v-6l-55-35v-16h169v16l-53 34-119 152 148 203 41 30v16h-211v-16l59-29v-6l-100-138-92 132v6l61 35v16z"/><path id="i57" d="M226 5l-70-611-66-38 4-16h241l-3 16-91 36 46 450h7l249-507h35l85 506h5l197-451-81-34 3-16h210l-3 16-68 33-281 616h-35l-87-499h-7l-254 499z"/><path id="i62" d="M194 10q-26 0-50-6-24-7-42-18l-51 24h-6l120-690-77-34v-6l163-30h3l-72 415h5q21-31 46-59 25-29 55-48 30-18 66-18 40 0 64 34 25 35 25 104 0 62-19 121-20 59-54 107-35 48-80 76-45 28-96 28zM307-394q-28 0-64 30-36 29-70 80l-35 202q22 29 41 41 19 12 44 12 39 0 72-33 33-34 53-92 19-57 19-129 0-61-13-86-14-25-47-25z"/><path id="i26" d="M187 10q-73 0-115-42-42-42-42-104 0-50 18-87 18-37 56-69 39-31 98-65-24-34-39-67-15-33-15-76 0-54 24-92 24-38 66-58 41-20 91-20 42 0 75 16 34 16 54 43 20 27 20 61 0 36-19 63-19 27-60 53-41 26-108 59 8 11 19 25l135 174q50-63 95-157l-87-39 3-16h226l-3 16-87 36q-32 54-64 100-31 47-63 86l7 9q35 45 70 73 36 27 75 27 33 0 59-23h2l9 11q-23 31-54 47-31 16-66 16-54 0-91-28-38-28-70-69-50 47-104 72-54 25-115 25zM221-528q0 32 14 63 14 31 41 70 76-41 102-81 25-40 25-75 0-36-23-57-22-21-60-21-38 0-68 25-31 24-31 76zM115-168q0 52 33 86 32 33 84 33 81 0 154-64l-156-206q-3-4-6-8-3-4-6-8-56 38-80 78-23 40-23 89z"/><path id="i6d" d="M43 0l69-389-78-35v-6l142-30h3v105h4q35-39 60-62 25-23 49-33 24-10 56-10 37 0 61 28 24 28 26 77h5q35-39 60-62 25-23 49-33 24-10 56-10 45 0 70 40 25 40 13 108l-35 193q-5 30-1 43 3 13 16 13 17 0 37-19 20-18 38-56l13 6q-29 75-62 108-34 34-69 34-35 0-48-27-13-27-5-72l39-220q6-35-7-63-12-27-52-27-22 0-44 15-21 14-41 34-20 21-36 39l-56 311h-76l55-309q6-35-6-63-13-27-53-27-22 0-44 15-22 15-43 36-20 20-36 39l-53 309z"/><path id="i33" d="M428-197q0 37-19 74-19 37-52 67-33 30-77 48-45 18-96 18-64 0-104-16-39-17-58-42-18-26-18-52 0-23 9-32 9-10 23-10h58l-15 86q22 14 48 20 26 6 60 6 46 0 81-22 35-21 56-58 20-36 20-79 0-59-38-95-39-36-101-36h-61l9-44h30q58 0 99-24 42-23 65-60 23-38 23-80 0-43-22-71-23-28-73-28-59 0-104 34l-10 91h-47q-16 0-24-4-8-4-8-18 0-29 27-63 27-34 75-59 49-24 112-24 48 0 83 20 35 21 55 54 19 33 19 70 0 34-21 68-21 34-58 62-38 27-86 39 64 15 102 57 38 42 38 103z"/><path id="i44" d="M10 0l3-16 83-40 96-548-69-40 3-16h221q119 0 193 34 74 35 108 96 34 60 34 138 0 49-14 102-15 54-46 106-30 51-78 92-47 42-112 67-65 25-150 25zM333-610h-54l-99 560h110q99 0 166-41 66-41 100-115 33-74 33-174 0-106-61-168-61-62-195-62z"/><style>@media (prefers-reduced-motion: no-preference){.tw{animation:tw 3.2s ease-in-out infinite}@keyframes tw{50%{opacity:.4}}.flow{animation:flow 22s linear infinite}@keyframes flow{0%{transform:rotate(0deg) scale(1)}25%{transform:rotate(15deg) scale(1.0655)}50%{transform:rotate(30deg) scale(1.1352)}75%{transform:rotate(45deg) scale(1.2095)}100%{transform:rotate(60deg) scale(1.2887)}}.swirl{animation:swirl 60s linear infinite}@keyframes swirl{to{transform:rotate(360deg)}}.act{animation:act 3.6s linear both}@keyframes act{0%{opacity:0;transform:rotate(var(--t)) scale(var(--s))}12%{opacity:1}40%{transform:rotate(var(--u)) scale(var(--r));animation-timing-function:cubic-bezier(.55,.05,.85,.5)}78%{transform:rotate(var(--v)) scale(.5);animation-timing-function:cubic-bezier(.2,.6,.3,1)}100%{opacity:1;transform:rotate(0deg) scale(1)}}.leave{animation:leave 1s ease-in 3.95s both}@keyframes leave{0%{opacity:1}100%{opacity:0}}.ignite{animation:ignite 1.9s ease-out 2.52s both}@keyframes ignite{0%{transform:scale(.08);opacity:0}38%{transform:scale(1.35);opacity:1}100%{transform:scale(1)}}.arrive{animation:arrive 1.2s ease-out 3.7s both}@keyframes arrive{from{opacity:0}}.spk{animation:spk 5s ease-in-out infinite}@keyframes spk{50%{opacity:.3}}.soft{animation:soft 1.2s ease-out both}@keyframes soft{from{opacity:0}}}</style></defs><rect width="850" height="430" rx="10" fill="#f1f4f9"/><g stroke-linecap="round" fill="none"><path d="M249.7 359.2h.01m308.4 -334.9h.01m-267.6 343h.01m-144.1 17.9h.01m-67.5 -189.1h.01m155.7 -15.7h.01" stroke="#627793" stroke-width=".8" stroke-opacity=".25"/><path d="M263.9 252.9h.01m230.7 39.9h.01m330 37.3h.01m-14.3 -41.2h.01m-675.7 -107.7h.01m137.4 132.6h.01m434.1 -242.2h.01m-695.5 4.8h.01" stroke="#627793" stroke-width=".8" stroke-opacity=".4"/><path d="M302.2 410.5h.01m145.3 -65.6h.01m-383.1 -62.8h.01m531.8 -57.9h.01m-158 70.6h.01m-293.4 -286.6h.01m8.5 405.6h.01m256.4 -26.7h.01m-274.7 -199h.01m227.4 67.2h.01m49.3 -51.8h.01" stroke="#627793" stroke-width=".8" stroke-opacity=".58"/><path d="M684 30.1h.01m-163.4 275.5h.01m-127.6 52.9h.01m-26.2 -213h.01m222.9 -46.9h.01m-110.1 300.7h.01" stroke="#627793" stroke-width="1.2" stroke-opacity=".25"/><path d="M629.8 292.9h.01m20.3 62.8h.01m-465.1 48.1h.01m288.5 -388.2h.01m229 87.5h.01m-480.9 278.9h.01m526.2 -333.6h.01m-78.6 -16.8h.01m-196.4 -21.3h.01m297.4 345.1h.01m-512.5 -96.6h.01m118 -112.7h.01m79 246.2h.01m338.2 25.1h.01m-738.1 -117.9h.01" stroke="#627793" stroke-width="1.2" stroke-opacity=".4"/><path d="M399.1 321h.01m322.4 -68.3h.01m4.2 72.4h.01" stroke="#627793" stroke-width="1.2" stroke-opacity=".58"/><path d="M576.8 331.6h.01m-88.1 74.6h.01m-150.4 -231.9h.01m262.3 -89.4h.01m108.4 225.6h.01m28.8 -144.8h.01m-592.3 38.7h.01" stroke="#627793" stroke-width="1.7" stroke-opacity=".25"/><path d="M583.2 71.8h.01m-347.4 -11h.01m-222.3 143.3h.01m775.2 53.3h.01m-450.5 -196.7h.01m53 121.5h.01m-43.4 -73.7h.01" stroke="#627793" stroke-width="1.7" stroke-opacity=".4"/><path d="M507.7 107.1h.01m-.4 66.5h.01m-3 -120.2h.01m34.5 253.2h.01m-147.6 -243.1h.01m400.7 190.4h.01m-75.9 -181h.01m-61.7 218.7h.01m-284.6 -147.7h.01" stroke="#627793" stroke-width="1.7" stroke-opacity=".58"/></g><circle cx="809.3" cy="315" r=".85" fill="#627793" fill-opacity="0.58" class="tw" style="animation-delay:0s"/><circle cx="698.6" cy="182.1" r=".4" fill="#627793" fill-opacity="0.25" class="tw" style="animation-delay:-.7s"/><circle cx="468.5" cy="255.9" r=".4" fill="#627793" fill-opacity="0.25" class="tw" style="animation-delay:-1.4s"/><circle cx="345.2" cy="231.8" r=".85" fill="#627793" fill-opacity="0.4" class="tw" style="animation-delay:-2.1s"/><circle cx="482.2" cy="343" r=".6" fill="#627793" fill-opacity="0.25" class="tw" style="animation-delay:-2.8s"/><circle cx="417.1" cy="12" r=".85" fill="#627793" fill-opacity="0.58" class="tw" style="animation-delay:-3.5s"/><circle cx="111.6" cy="208.1" r=".4" fill="#627793" fill-opacity="0.25" class="tw" style="animation-delay:-4.2s"/><circle cx="210.6" cy="269.1" r=".6" fill="#627793" fill-opacity="0.4" class="tw" style="animation-delay:-4.9s"/><g transform="translate(630 215)" stroke-linecap="round" fill="none"><circle class="ignite" r="98" fill="url(#cg)"/><g class="arrive"><g mask="url(#k0)"><g class="flow" style="animation-delay:-.19s;animation-duration:22s"><use href="#t00" transform="rotate(35) scale(1)"/><use href="#t00" transform="rotate(-25) scale(.776)"/><use href="#t00" transform="rotate(-85) scale(.6022)"/><use href="#t00" transform="rotate(-145) scale(.4673)"/><use href="#t00" transform="rotate(-205) scale(.3626)"/><use href="#t00" transform="rotate(-265) scale(.2814)"/><use href="#t00" transform="rotate(-325) scale(.2184)"/><use href="#t00" transform="rotate(-385) scale(.1695)"/><use href="#t00" transform="rotate(-445) scale(.1315)"/><use href="#t00" transform="rotate(-505) scale(.102)"/><use href="#t00" transform="rotate(-565) scale(.0792)"/></g></g><g mask="url(#k1)"><g class="flow" style="animation-delay:-8.29s;animation-duration:29s"><use href="#t01" transform="rotate(-25) scale(.776)"/><use href="#t01" transform="rotate(-85) scale(.6022)"/><use href="#t01" transform="rotate(-145) scale(.4673)"/><use href="#t01" transform="rotate(-205) scale(.3626)"/><use href="#t01" transform="rotate(-265) scale(.2814)"/><use href="#t01" transform="rotate(-325) scale(.2184)"/><use href="#t01" transform="rotate(-385) scale(.1695)"/><use href="#t01" transform="rotate(-445) scale(.1315)"/><use href="#t01" transform="rotate(-505) scale(.102)"/><use href="#t01" transform="rotate(-565) scale(.0792)"/></g></g><g mask="url(#k2)"><g class="flow" style="animation-delay:-1.17s;animation-duration:25s"><use href="#t02" transform="rotate(35) scale(1)"/><use href="#t02" transform="rotate(-25) scale(.776)"/><use href="#t02" transform="rotate(-85) scale(.6022)"/><use href="#t02" transform="rotate(-145) scale(.4673)"/><use href="#t02" transform="rotate(-205) scale(.3626)"/><use href="#t02" transform="rotate(-265) scale(.2814)"/></g></g><g mask="url(#k3)"><g class="flow" style="animation-delay:-21.24s;animation-duration:22s"><use href="#t10" transform="rotate(155) scale(1)"/><use href="#t10" transform="rotate(95) scale(.776)"/><use href="#t10" transform="rotate(35) scale(.6022)"/><use href="#t10" transform="rotate(-25) scale(.4673)"/><use href="#t10" transform="rotate(-85) scale(.3626)"/><use href="#t10" transform="rotate(-145) scale(.2814)"/><use href="#t10" transform="rotate(-205) scale(.2184)"/><use href="#t10" transform="rotate(-265) scale(.1695)"/><use href="#t10" transform="rotate(-325) scale(.1315)"/><use href="#t10" transform="rotate(-385) scale(.102)"/><use href="#t10" transform="rotate(-445) scale(.0792)"/></g></g><g mask="url(#k1)"><g class="flow" style="animation-delay:-14.59s;animation-duration:29s"><use href="#t11" transform="rotate(95) scale(.776)"/><use href="#t11" transform="rotate(35) scale(.6022)"/><use href="#t11" transform="rotate(-25) scale(.4673)"/><use href="#t11" transform="rotate(-85) scale(.3626)"/><use href="#t11" transform="rotate(-145) scale(.2814)"/><use href="#t11" transform="rotate(-205) scale(.2184)"/><use href="#t11" transform="rotate(-265) scale(.1695)"/><use href="#t11" transform="rotate(-325) scale(.1315)"/><use href="#t11" transform="rotate(-385) scale(.102)"/><use href="#t11" transform="rotate(-445) scale(.0792)"/></g></g><g mask="url(#k4)"><g class="flow" style="animation-delay:-20.28s;animation-duration:25s"><use href="#t12" transform="rotate(155) scale(1)"/><use href="#t12" transform="rotate(95) scale(.776)"/><use href="#t12" transform="rotate(35) scale(.6022)"/><use href="#t12" transform="rotate(-25) scale(.4673)"/><use href="#t12" transform="rotate(-85) scale(.3626)"/><use href="#t12" transform="rotate(-145) scale(.2814)"/></g></g><g mask="url(#k5)"><g class="flow" style="animation-delay:-18.83s;animation-duration:22s"><use href="#t20" transform="rotate(215) scale(.776)"/><use href="#t20" transform="rotate(155) scale(.6022)"/><use href="#t20" transform="rotate(95) scale(.4673)"/><use href="#t20" transform="rotate(35) scale(.3626)"/><use href="#t20" transform="rotate(-25) scale(.2814)"/><use href="#t20" transform="rotate(-85) scale(.2184)"/><use href="#t20" transform="rotate(-145) scale(.1695)"/><use href="#t20" transform="rotate(-205) scale(.1315)"/><use href="#t20" transform="rotate(-265) scale(.102)"/><use href="#t20" transform="rotate(-325) scale(.0792)"/></g></g><g mask="url(#k1)"><g class="flow" style="animation-delay:-28.29s;animation-duration:29s"><use href="#t21" transform="rotate(215) scale(.776)"/><use href="#t21" transform="rotate(155) scale(.6022)"/><use href="#t21" transform="rotate(95) scale(.4673)"/><use href="#t21" transform="rotate(35) scale(.3626)"/><use href="#t21" transform="rotate(-25) scale(.2814)"/><use href="#t21" transform="rotate(-85) scale(.2184)"/><use href="#t21" transform="rotate(-145) scale(.1695)"/><use href="#t21" transform="rotate(-205) scale(.1315)"/><use href="#t21" transform="rotate(-265) scale(.102)"/><use href="#t21" transform="rotate(-325) scale(.0792)"/></g></g><g mask="url(#k6)"><g class="flow" style="animation-delay:-13.2s;animation-duration:25s"><use href="#t22" transform="rotate(215) scale(.776)"/><use href="#t22" transform="rotate(155) scale(.6022)"/><use href="#t22" transform="rotate(95) scale(.4673)"/><use href="#t22" transform="rotate(35) scale(.3626)"/><use href="#t22" transform="rotate(-25) scale(.2814)"/></g></g><g class="swirl"><path d="M3.4 2.3h.01m6.5 -9.7h.01m-18 11.4h.01m12.9 1.9h.01m-3.9 -.2h.01m24 -3.5h.01m-25.8 -3.5h.01m-5.3 6.1h.01m-6.4 -1.3h.01m-18 -21.3h.01m36.2 13.5h.01m-3.7 3.6h.01m-6.5 10.7h.01m-6.7 -.1h.01m11.1 -10.6h.01m26.1 -5.1h.01m-14.1 -.8h.01m-14 15.2h.01m-.1 -12.5h.01m16.8 -15.1h.01m-15.3 29.3h.01m.9 -9.6h.01m-.5 3.6h.01m1.1 .2h.01m-.1 .4h.01m-1.3 -6.1h.01m8 12.5h.01m-8.6 -13.5h.01m-21.4 -2.3h.01m17.4 -8.2h.01m-7.1 29.6h.01m36.2 1.1h.01m-43.8 -18.7h.01m28.7 -5.8h.01m-21.2 24.4h.01m9 -25.3h.01m21.8 13.1h.01m-23.1 1.7h.01m-10.1 -8.9h.01m20.8 -9.5h.01m-6.5 -4.4h.01m-11 -28.9h.01m2.3 47.9h.01m26 -12.9h.01m-20.5 -7.5h.01m15.4 24.1h.01m-13.1 -5.9h.01m1.8 4.5h.01m-9.1 -18.8h.01m8.5 12.7h.01m-27.9 -22.9h.01m-4.3 31.6h.01m36.5 -11.7h.01m-16.7 8.3h.01m11.8 -15h.01m-12.5 14.1h.01m17.4 18.7h.01m-3.8 -24.2h.01m-6 19h.01m13.2 -43.1h.01m-3.8 26.8h.01m10.7 -3.8h.01m-15.8 3.8h.01m-2.6 0h.01m-27.8 7.9h.01m23.7 .7h.01m-18.5 -20.1h.01m45.1 2h.01m-8.9 22.5h.01m-4.5 -3.8h.01m-4.9 -13.8h.01m9.9 12.2h.01m-6.2 -7.4h.01m5.9 -5.5h.01m-10.6 4.2h.01m1.1 9.8h.01m6.5 -16.8h.01m-24.3 -.7h.01m12.6 2.3h.01m-42.6 .6h.01m55.2 -12.9h.01m-45.4 40.4h.01m39.4 -26.2h.01m-9 -3.4h.01m2.7 11.5h.01m6.3 10.6h.01m2.6 -16.1h.01m-4.4 -7.9h.01m12.1 4.2h.01m-16.6 2.7h.01m8.8 -14.8h.01m8.7 -19.7h.01m-10.7 33.5h.01m-6 7.3h.01m8.4 -14.4h.01m18 .4h.01m-19.1 22.7h.01m-10.7 -4.3h.01m15.7 32.6h.01m14.7 -69.2h.01m-23.4 22.1h.01m-28.4 22.6h.01m46 -7.2h.01m-20.6 -9.5h.01m19.9 5.1h.01m-19.2 3.3h.01m2.1 -7.3h.01m13.1 -2.9h.01m-10.3 .6h.01m-6.5 2.3h.01m11.2 4.7h.01m5.2 3.4h.01m-21.8 1h.01m9.8 -39.9h.01m-9.8 55.3h.01m8.6 -26.1h.01m-18.4 22.5h.01m18.3 -22.5h.01m-23.2 9h.01m38.3 -13h.01m-28.7 2.9h.01m-12.5 -40h.01m26.7 35.3h.01m-1.9 6.2h.01m1.2 -3.1h.01m16.1 9.6h.01m-42.6 -20.8h.01m20.9 13.1h.01m17.8 -9.4h.01m-10.2 2.1h.01m8.8 -9.4h.01m-28.9 41h.01m14.3 -23.1h.01m7 -5.9h.01m3.5 10.1h.01m-9.1 -11.5h.01m4 -12.2h.01m-14.7 18.2h.01" stroke="#11305a" stroke-width="1" stroke-opacity=".9"/><path d="M1.7 .2h.01m-8.7 9.7h.01m7 -6.5h.01m-6.3 -1.9h.01m11.3 5.3h.01m-17.8 6.9h.01m-5 .9h.01m24.3 -27.9h.01m-43.4 44.3h.01m48.7 -18.4h.01m-15 .6h.01m-9 -20.1h.01m26.9 10.4h.01m-19.2 -9.8h.01m7.4 32.4h.01m-6 -26.3h.01m37 33.6h.01m-45.3 -37.4h.01m25.6 -13.8h.01m3.8 35h.01m-27.3 -8.7h.01m16 -4.9h.01m-6.9 -2.8h.01m-7.3 13.3h.01m28.2 -4.4h.01m-18.1 -10.8h.01m-7.3 -11.8h.01" stroke="#c9560b" stroke-width="1" stroke-opacity=".9"/><path d="M-.6 -14.5h.01m8.2 25.1h.01m-9.5 -29.6h.01m-15.8 18h.01m7 -16.2h.01m21.1 34.1h.01m-13.4 -33h.01m13.5 15.9h.01m-35 -15.9h.01m28.1 25.2h.01m-3.9 -7.9h.01m.7 -3.9h.01m6.2 -6.9h.01m-19.6 10h.01m11.1 -3.5h.01m9.2 -1.3h.01m-7.4 3.7h.01m-2.5 9.7h.01m-12.6 -25.1h.01m9.4 8.2h.01m9.4 13.2h.01m-4.8 -7.5h.01m-4.4 .8h.01m7.4 5.1h.01m-2.5 -1.9h.01m-10.5 10.9h.01m26.7 -17.1h.01m-16.1 6.7h.01m2.3 12.9h.01m-14.4 -13.3h.01m5 32.1h.01m39.4 -28.3h.01m-32.4 -5.6h.01m-.8 -12.9h.01m1.2 12.8h.01m.2 -8.2h.01m-4.8 26.2h.01m23.5 -9.5h.01m-21.6 -14.5h.01m0 4.3h.01m3.5 -2.5h.01m-5.4 -3.1h.01m4.6 7.3h.01m-9.1 -6.7h.01m9.4 2.2h.01m1.1 5.2h.01m-.4 8.9h.01m40 -30h.01m-35.8 16.5h.01m-33.8 12.2h.01m18.4 -13.6h.01m9.4 9h.01m24.5 9.3h.01m-26.4 -32h.01m5.8 24.7h.01m11.9 -10.5h.01m-35 4h.01m5.1 1.9h.01m6.4 14.2h.01m4.8 -27.7h.01m-5.4 17h.01m9.1 -3.4h.01m.2 5.1h.01m-12.1 2.5h.01m10.8 -9.2h.01m.6 1.5h.01m20.3 7.4h.01m-19.2 1.2h.01m1.8 -16.1h.01m-15.7 3h.01m14.4 -9.9h.01m14.1 -2.7h.01m-16.9 12.3h.01m29.5 9.3h.01m-11.7 -23.9h.01m-5.2 9.4h.01m15 11.6h.01m-20.4 -.9h.01" stroke="#11305a" stroke-width="1.7"/><path d="M-19 -5.8h.01m-3.1 22.4h.01m.4 -29h.01m31 20.8h.01m-4.4 -7.9h.01m17 4h.01m-24.6 3.2h.01m6.9 11.2h.01m36 2.8h.01m-47.4 -18.6h.01m-13.6 -2.7h.01m36.6 -8.9h.01m-17 6.5h.01m14.7 -17h.01m-14.6 10.7h.01m15.3 12h.01" stroke="#c9560b" stroke-width="1.7"/><defs><g id="d19"><path d="M2.5 -20.8h.01m-2.9 45.8h.01m6.3 -25.9h.01m-1.8 -7.5h.01m22.9 29.7h.01m-33.9 -5.5h.01m2.6 -11.2h.01m25.1 10.4h.01m-56.6 -26.4h.01m32.8 16.5h.01m2.4 -7.7h.01m-1.1 .5h.01m18.6 -7.8h.01m-25.8 -.3h.01m13.9 -1.9h.01m11.7 13.8h.01m-20.4 6.5h.01m4.8 -7.3h.01m-.5 -20.2h.01m3.8 27.7h.01m-7.6 -16.6h.01m9.3 7.6h.01m12.2 -20.7h.01m-62.4 36h.01m47.5 -16.8h.01m7 9.4h.01m-11.9 -12h.01m5.2 15.1h.01m13.9 -3.9h.01m-30.4 -11.9h.01m19.9 8h.01m16.9 11.4h.01m-15.5 -17.6h.01m-7.8 22.9h.01m-.1 -19.7h.01m-.8 .3h.01m21 -15.8h.01m-13.2 33.4h.01m-12.4 .9h.01m20.4 -26.5h.01m-10.8 9.9h.01" stroke="#11305a"/><path d="M2.2 10.6h.01m.5 -10h.01m7.3 3.9h.01m-30.8 -20.3h.01m10.4 -.7h.01" stroke="#c9560b"/></g></defs><use href="#d19" stroke-width="8.25" stroke-opacity=".021"/><use href="#d19" stroke-width="6.5" stroke-opacity=".042"/><use href="#d19" stroke-width="5" stroke-opacity=".078"/><use href="#d19" stroke-width="3.75" stroke-opacity=".156"/><use href="#d19" stroke-width="2.5"/><defs><g id="d20"><path d="M34.5 -5.4h.01m-32.3 5.9h.01m-1.3 -1.2h.01m.8 -2h.01m-.9 -39.3h.01m-20.6 53.8h.01m34.1 -22.7h.01m-21.5 20.7h.01m8.7 -12.1h.01m-21.1 5.9h.01" stroke="#11305a"/><path d="M-22.9 -32.4h.01m29.4 38.8h.01m-9.7 -5h.01m3.2 -1.3h.01m-33.9 21h.01" stroke="#c9560b"/></g></defs><use href="#d20" stroke-width="11.88" stroke-opacity=".021"/><use href="#d20" stroke-width="9.36" stroke-opacity=".042"/><use href="#d20" stroke-width="7.2" stroke-opacity=".078"/><use href="#d20" stroke-width="5.4" stroke-opacity=".156"/><use href="#d20" stroke-width="3.6"/></g></g><g class="leave mo" opacity="0"><g class="act" style="animation-delay:.29s;--t:-176.9deg;--u:-164.5deg;--v:-35.4deg;--s:2.89;--r:2.81"><path d="M30 12h.01m-92 -33h.01m80 76h.01m1 53h.01m-28 -117h.01m2 24h.01m59 70h.01m18 -89h.01m-88 -83h.01m76 146h.01m-151 -143h.01m29 129h.01m114 -94h.01m-9 73h.01m-44 -16h.01m31 7h.01m-24 -10h.01m-57 -46h.01m-5 110h.01m89 -23h.01m-205 -69h.01m106 139h.01m53 -109h.01m16 -8h.01m44 20h.01m61 -54h.01m-127 40h.01m-41 103h.01" stroke="#11305a" stroke-width=".8"/><path d="M25 22h.01m-2 6h.01m80 -74h.01" stroke="#c9560b" stroke-width=".8"/><path d="M-64 3h.01m-110 -86h.01m200 181h.01m18 -243h.01m-226 153h.01m207 19h.01m-21 -23h.01m96 -60h.01m-85 -35h.01m-32 97h.01m18 3h.01m-41 -19h.01m47 3h.01m-4 -84h.01" stroke="#11305a" stroke-width="1.3"/><path d="M25 17h.01m-192 -50h.01m157 30h.01" stroke="#c9560b" stroke-width="1.3"/></g><g class="act" style="animation-delay:.14s;--t:-150.5deg;--u:-139.9deg;--v:-30.1deg;--s:2.63;--r:2.56"><path d="M29 -29h.01m-29 29h.01m-76 35h.01m153 -69h.01m-81 -110h.01m16 253h.01m-38 -245h.01m-24 160h.01m-113 -102h.01m81 121h.01m99 76h.01m-28 -98h.01m71 67h.01m-19 -48h.01m7 -26h.01m-56 11h.01m39 -23h.01m9 -92h.01m-71 161h.01m33 -67h.01m-54 -120h.01m48 119h.01m37 -21h.01m-33 19h.01m35 -62h.01m-202 -51h.01m64 43h.01" stroke="#11305a" stroke-width=".8"/><path d="M-35 68h.01m-121 -159h.01m126 -44h.01m38 142h.01" stroke="#c9560b" stroke-width=".8"/><path d="M-180 -20h.01m127 29h.01m10 -64h.01m112 117h.01m-241 -70h.01m196 -91h.01m-23 99h.01m-159 27h.01m157 46h.01m1 -33h.01m-79 -128h.01m-21 37h.01m61 -18h.01m-86 135h.01" stroke="#11305a" stroke-width="1.3"/><path d="M25 -99h.01m-4 127h.01" stroke="#c9560b" stroke-width="1.3"/><path d="M-52 -46h.01" stroke="#11305a" stroke-width="2"/></g><g class="act" style="animation-delay:.21s;--t:-239.4deg;--u:-222.6deg;--v:-47.9deg;--s:2.34;--r:2.27"><path d="M7 112h.01m30 -124h.01m37 67h.01m-27 -137h.01m-110 50h.01m60 26h.01m-85 44h.01m161 -122h.01m-81 90h.01m82 41h.01m-78 -78h.01m2 -132h.01m46 198h.01m-36 -7h.01m113 -73h.01m-147 69h.01m-73 -12h.01m34 -41h.01m63 25h.01m13 111h.01m-10 -195h.01m-18 -76h.01" stroke="#11305a" stroke-width=".8"/><path d="M-58 1h.01m104 -150h.01m-140 271h.01" stroke="#c9560b" stroke-width=".8"/><path d="M-55 -51h.01m18 50h.01m86 -6h.01m28 -143h.01m-176 136h.01m124 6h.01m-186 -26h.01m179 31h.01m14 6h.01m8 42h.01m-58 -69h.01m-145 49h.01m101 -13h.01m29 -1h.01m60 -38h.01m3 32h.01m-38 -5h.01m7 3h.01m7 -3h.01" stroke="#11305a" stroke-width="1.3"/><path d="M19 18h.01m-19 -167h.01" stroke="#c9560b" stroke-width="1.3"/><path d="M-158 -26h.01" stroke="#11305a" stroke-width="2"/><path d="M-5 -158h.01" stroke="#c9560b" stroke-width="2"/></g><g class="act" style="animation-delay:.13s;--t:-214.9deg;--u:-199.8deg;--v:-43deg;--s:3.29;--r:3.19"><path d="M108 -57h.01m-96 -37h.01m-47 18h.01m33 120h.01m86 -201h.01m-39 107h.01m-37 -43h.01m25 191h.01m-34 -97h.01m22 -12h.01m-52 10h.01m10 -147h.01m29 140h.01m13 -25h.01m-11 67h.01m3 81h.01m63 -137h.01m-82 -76h.01m123 56h.01m-238 124h.01m87 -213h.01m27 84h.01m-41 116h.01" stroke="#11305a" stroke-width=".8"/><path d="M-31 -73h.01m31 71h.01m-11 25h.01m34 -120h.01m-1 127h.01m-6 -32h.01" stroke="#c9560b" stroke-width=".8"/><path d="M-127 51h.01m103 -67h.01m48 -127h.01m-41 250h.01m-19 -132h.01m10 -19h.01m-69 10h.01m151 -117h.01m-59 66h.01m-93 106h.01m192 -91h.01m-99 69h.01" stroke="#11305a" stroke-width="1.3"/><path d="M-85 32h.01m26 -15h.01m67 0h.01m74 27h.01" stroke="#c9560b" stroke-width="1.3"/><path d="M78 13h.01m-98 25h.01" stroke="#11305a" stroke-width="2"/><path d="M-100 90h.01" stroke="#c9560b" stroke-width="2"/></g><g class="act" style="animation-delay:.26s;--t:-240.9deg;--u:-224deg;--v:-48.2deg;--s:2.61;--r:2.53"><path d="M-33 -160h.01m103 164h.01m-200 78h.01m172 -43h.01m-42 -35h.01m-187 -16h.01m91 104h.01m123 -37h.01m84 -86h.01m-111 32h.01m-12 1h.01m16 -96h.01m-27 -41h.01m37 148h.01m-24 -10h.01m16 14h.01m-47 -23h.01m-14 19h.01m22 2h.01m41 -10h.01m-11 6h.01m13 -1h.01m-7 -108h.01" stroke="#11305a" stroke-width=".8"/><path d="M-72 54h.01m-90 -156h.01m150 107h.01m-19 112h.01m151 -139h.01m-93 51h.01" stroke="#c9560b" stroke-width=".8"/><path d="M-54 23h.01m89 -119h.01m-30 93h.01m-25 85h.01m103 -147h.01m-13 -22h.01m-153 -7h.01m94 96h.01m12 104h.01m-11 -41h.01m10 -36h.01m56 -174h.01m-111 179h.01m26 -50h.01" stroke="#11305a" stroke-width="1.3"/><path d="M-84 37h.01m106 -90h.01m82 7h.01" stroke="#c9560b" stroke-width="1.3"/><path d="M-11 -27h.01m9 61h.01" stroke="#11305a" stroke-width="2"/></g><g class="act" style="animation-delay:.01s;--t:-224.2deg;--u:-208.5deg;--v:-44.8deg;--s:2.78;--r:2.7"><path d="M-86 -80h.01m98 118h.01m76 -41h.01m-90 26h.01m110 -63h.01m-90 70h.01m-44 -107h.01m-44 -48h.01m72 151h.01m-88 77h.01m37 14h.01m63 -56h.01m-9 60h.01m-33 -105h.01m53 -166h.01m-44 221h.01m-5 -117h.01m28 30h.01m-101 -11h.01" stroke="#11305a" stroke-width=".8"/><path d="M2 2h.01m36 48h.01m-46 -45h.01m-47 -54h.01m95 89h.01m-31 -47h.01" stroke="#c9560b" stroke-width=".8"/><path d="M9 -29h.01m-80 132h.01m72 -109h.01m5 119h.01m7 -93h.01m-34 -105h.01m-156 57h.01m130 54h.01m47 -26h.01m-37 -6h.01m33 0h.01m-51 112h.01m119 -40h.01m-27 -114h.01m33 110h.01m-106 -26h.01m38 -34h.01" stroke="#11305a" stroke-width="1.3"/><path d="M68 -78h.01m19 120h.01m-135 -175h.01m46 205h.01" stroke="#c9560b" stroke-width="1.3"/><path d="M0 0h.01" stroke="#11305a" stroke-width="2"/><path d="M-63 -132h.01" stroke="#c9560b" stroke-width="2"/></g><g class="act" style="animation-delay:.07s;--t:-204.3deg;--u:-190deg;--v:-40.9deg;--s:3.29;--r:3.19"><path d="M-171 -83h.01m241 153h.01m-104 -34h.01m-79 47h.01m106 -79h.01m-36 23h.01m22 -23h.01m29 13h.01m45 -108h.01m-47 90h.01m-175 -75h.01m164 20h.01m-54 25h.01m-40 -4h.01m31 -70h.01m38 73h.01m16 30h.01m-159 -34h.01m137 14h.01m45 29h.01" stroke="#11305a" stroke-width=".8"/><path d="M-17 4h.01m-145 -100h.01m243 137h.01" stroke="#c9560b" stroke-width=".8"/><path d="M27 -140h.01m-81 88h.01m110 -120h.01m-53 175h.01m-4 -2h.01m15 -13h.01m-62 77h.01m17 5h.01m32 -66h.01m-20 -25h.01m11 15h.01m-25 16h.01m-25 -40h.01m56 28h.01m25 30h.01m2 0h.01m1 -16h.01" stroke="#11305a" stroke-width="1.3"/><path d="M-173 -46h.01m246 -33h.01m-79 210h.01m33 -136h.01m26 -149h.01m-52 153h.01" stroke="#c9560b" stroke-width="1.3"/><path d="M11 5h.01m-117 -44h.01" stroke="#11305a" stroke-width="2"/></g><g class="act" style="animation-delay:.19s;--t:-281.5deg;--u:-261.8deg;--v:-56.3deg;--s:3.05;--r:2.96"><path d="M-34 -31h.01m51 54h.01m-77 -42h.01m13 -34h.01m79 102h.01m-23 -42h.01m-4 -13h.01m18 0h.01m90 -38h.01m-169 59h.01m-9 -118h.01m10 68h.01m96 48h.01m-39 98h.01m14 -87h.01m-121 -35h.01m107 -45h.01m20 46h.01m-20 133h.01m1 -120h.01m-23 13h.01m43 -174h.01m-25 163h.01m14 -2h.01" stroke="#11305a" stroke-width=".8"/><path d="M-153 10h.01m53 -12h.01" stroke="#c9560b" stroke-width=".8"/><path d="M0 1h.01m-61 -23h.01m-121 36h.01m176 -107h.01m33 88h.01m26 -147h.01m-75 79h.01m24 81h.01m43 29h.01m-30 -188h.01m45 63h.01m11 -56h.01m-131 10h.01m-42 103h.01m174 4h.01m-228 -52h.01m98 100h.01m-107 -43h.01" stroke="#11305a" stroke-width="1.3"/><path d="M3 2h.01" stroke="#c9560b" stroke-width="1.3"/><path d="M15 6h.01m-35 -26h.01m-17 55h.01" stroke="#11305a" stroke-width="2"/></g><g class="act" style="animation-delay:.23s;--t:-193.6deg;--u:-180.1deg;--v:-38.7deg;--s:3.27;--r:3.17"><path d="M67 -11h.01m-45 27h.01m-1 17h.01m21 -1h.01m46 -3h.01m-180 -80h.01m1 -20h.01m91 73h.01m-35 -11h.01m35 9h.01m25 -79h.01m-34 79h.01m97 32h.01m-59 -29h.01m-12 62h.01m-11 -43h.01m-151 25h.01m153 -68h.01" stroke="#11305a" stroke-width=".8"/><path d="M17 -62h.01m-163 124h.01m-21 -69h.01m137 -65h.01m-29 45h.01m-116 -38h.01m198 55h.01" stroke="#c9560b" stroke-width=".8"/><path d="M34 -24h.01m-11 16h.01m4 -42h.01m97 21h.01m-99 -71h.01m-29 135h.01m30 -83h.01m-64 -19h.01m41 72h.01m32 48h.01m-50 14h.01m37 -48h.01m-25 -11h.01m-155 2h.01m131 4h.01m-140 -39h.01m120 48h.01" stroke="#11305a" stroke-width="1.3"/><path d="M8 -6h.01m-8 -26h.01m-1 -3h.01m-14 27h.01" stroke="#c9560b" stroke-width="1.3"/><path d="M-12 -158h.01m12 147h.01" stroke="#11305a" stroke-width="2"/></g><g class="act" style="animation-delay:.23s;--t:-198.9deg;--u:-185deg;--v:-39.8deg;--s:2.49;--r:2.42"><path d="M4 -6h.01m-9 -26h.01m7 32h.01m20 -9h.01m55 21h.01m-239 -91h.01m149 150h.01m-22 -36h.01m-15 37h.01m-21 -163h.01m7 -24h.01m65 84h.01m-1 32h.01m-24 -11h.01m80 -59h.01m-66 39h.01m22 27h.01m-22 5h.01m83 75h.01m-73 -77h.01m-98 34h.01m66 7h.01" stroke="#11305a" stroke-width=".8"/><path d="M5 -4h.01m25 22h.01m-26 -13h.01m-170 -98h.01" stroke="#c9560b" stroke-width=".8"/><path d="M-14 1h.01m3 -32h.01m10 34h.01m66 64h.01m-65 -66h.01m0 -2h.01m35 54h.01m-17 -85h.01m25 -45h.01m-95 10h.01m155 19h.01m-99 52h.01m-7 -21h.01m-19 11h.01m38 23h.01m0 -31h.01m-115 -7h.01m126 36h.01m-37 108h.01m-58 -78h.01" stroke="#11305a" stroke-width="1.3"/><path d="M-167 -100h.01m183 130h.01" stroke="#c9560b" stroke-width="1.3"/></g><g class="act" style="animation-delay:.02s;--t:-182.2deg;--u:-169.5deg;--v:-36.4deg;--s:2.83;--r:2.75"><path d="M-40 -9h.01m94 100h.01m-81 -114h.01m55 -123h.01m16 65h.01m-125 199h.01m24 -249h.01m158 85h.01m-109 45h.01m-7 -1h.01m-52 -96h.01m-90 29h.01m193 163h.01m-211 -131h.01m169 28h.01m57 -33h.01m-90 154h.01m31 -163h.01m5 -46h.01m30 101h.01m-55 -43h.01m3 -50h.01" stroke="#11305a" stroke-width=".8"/><path d="M34 -99h.01m-201 64h.01m97 -79h.01m-112 65h.01" stroke="#c9560b" stroke-width=".8"/><path d="M-52 -57h.01m-16 -70h.01m111 149h.01m-19 -167h.01m-29 152h.01m23 -24h.01m-63 -52h.01m85 53h.01m-86 91h.01m55 -66h.01m-58 20h.01m-6 96h.01m95 -104h.01m-39 -1h.01m12 -114h.01m-52 72h.01" stroke="#11305a" stroke-width="1.3"/><path d="M-4 -49h.01m29 84h.01m11 -83h.01m-60 113h.01m-70 -129h.01" stroke="#c9560b" stroke-width="1.3"/><path d="M-63 -21h.01" stroke="#11305a" stroke-width="2"/></g><g class="act" style="animation-delay:.05s;--t:-194.2deg;--u:-180.7deg;--v:-38.8deg;--s:3.01;--r:2.92"><path d="M86 -62h.01m-150 -59h.01m67 116h.01m1 5h.01m-17 -91h.01m53 37h.01m-80 85h.01m-19 -20h.01m58 -8h.01m-105 3h.01m8 -74h.01m115 101h.01m-32 -86h.01m-24 -4h.01m112 56h.01m60 -23h.01m-89 46h.01m-24 -14h.01m-21 -7h.01m42 -9h.01m-24 -27h.01m12 141h.01m-201 -167h.01" stroke="#11305a" stroke-width=".8"/><path d="M-6 14h.01m-37 -80h.01m24 20h.01m12 28h.01" stroke="#c9560b" stroke-width=".8"/><path d="M66 -77h.01m-11 -64h.01m-59 146h.01m55 84h.01m-165 14h.01m101 -102h.01m-21 13h.01m5 99h.01m72 -199h.01m17 183h.01m-86 -82h.01m51 -105h.01m23 89h.01m-119 52h.01m90 -17h.01m-11 -193h.01" stroke="#11305a" stroke-width="1.3"/><path d="M-6 -2h.01m-164 11h.01m147 -22h.01m18 -70h.01m-15 62h.01" stroke="#c9560b" stroke-width="1.3"/></g><g class="act" style="animation-delay:.19s;--t:-177.8deg;--u:-165.3deg;--v:-35.6deg;--s:2.89;--r:2.8"><path d="M-61 12h.01m-121 -80h.01m188 63h.01m111 -25h.01m-86 -65h.01m-208 82h.01m10 -95h.01m191 11h.01m27 10h.01m-28 78h.01m-23 -75h.01m48 118h.01m-39 32h.01m-171 -113h.01m181 152h.01m-6 -78h.01m-146 34h.01m-2 -13h.01m147 -26h.01m-12 -21h.01m-22 -12h.01m125 -35h.01m-156 -80h.01m67 31h.01" stroke="#11305a" stroke-width=".8"/><path d="M-162 3h.01" stroke="#c9560b" stroke-width=".8"/><path d="M1 0h.01m-17 -24h.01m2 20h.01m11 -18h.01m9 44h.01m76 -184h.01m-120 199h.01m-70 -78h.01m121 -15h.01m-42 23h.01m36 -75h.01m-5 113h.01m15 -169h.01m-26 157h.01m24 75h.01m-7 -61h.01" stroke="#11305a" stroke-width="1.3"/><path d="M-40 -64h.01m34 65h.01m-22 19h.01m64 -16h.01" stroke="#c9560b" stroke-width="1.3"/><path d="M-74 113h.01m151 -126h.01" stroke="#11305a" stroke-width="2"/><path d="M7 -94h.01" stroke="#c9560b" stroke-width="2"/></g><g class="act" style="animation-delay:.02s;--t:-124.2deg;--u:-115.5deg;--v:-24.8deg;--s:2.52;--r:2.45"><path d="M15 -32h.01m48 -61h.01m-80 72h.01m17 -13h.01m-11 19h.01m0 88h.01m-22 -32h.01m16 -36h.01m126 -49h.01m-93 54h.01m-4 -107h.01m-27 97h.01m51 -150h.01m-34 154h.01m-89 -107h.01m90 143h.01m11 -97h.01m44 28h.01m55 -16h.01m18 15h.01m-145 38h.01m-168 -81h.01m173 42h.01" stroke="#11305a" stroke-width=".8"/><path d="M-3 -10h.01m32 -83h.01m97 53h.01m-304 53h.01m68 -63h.01m65 164h.01" stroke="#c9560b" stroke-width=".8"/><path d="M-67 -11h.01m126 -74h.01m-153 -15h.01m103 136h.01m10 -37h.01m2 -11h.01m-121 -17h.01m182 -38h.01m-88 75h.01m14 4h.01m-7 102h.01m-9 -121h.01m57 -144h.01" stroke="#11305a" stroke-width="1.3"/><path d="M14 -31h.01m-46 -39h.01m-72 73h.01m136 4h.01m-31 -13h.01" stroke="#c9560b" stroke-width="1.3"/><path d="M-12 -23h.01" stroke="#11305a" stroke-width="2"/></g></g></g><g class="soft" style="animation-delay:5.8s"><g fill="#627793" stroke="#f1f4f9" stroke-width="259.3" stroke-linejoin="round" paint-order="stroke"><use href="#i57" transform="translate(434.5 223.4) rotate(74.1) scale(.0135) translate(-473.5 0)"/><use href="#i65" transform="translate(437 231.7) rotate(71.5) scale(.0135) translate(-221.5 0)"/><use href="#i62" transform="translate(439.1 237.7) rotate(69) scale(.0135) translate(-246.5 0)"/><use href="#i26" transform="translate(443.5 248.3) rotate(66.4) scale(.0135) translate(-363.5 0)"/><use href="#i6d" transform="translate(449.2 260.3) rotate(62.5) scale(.0135) translate(-386.5 0)"/><use href="#i6f" transform="translate(453.4 267.8) rotate(59.8) scale(.0135) translate(-254.5 0)"/><use href="#i62" transform="translate(456.9 273.5) rotate(57.1) scale(.0135) translate(-246.5 0)"/><use href="#i69" transform="translate(459.7 278) rotate(55.8) scale(.0135) translate(-144 0)"/><use href="#i6c" transform="translate(461.8 281) rotate(54.4) scale(.0135) translate(-129 0)"/><use href="#i65" transform="translate(464.6 284.8) rotate(53) scale(.0135) translate(-221.5 0)"/></g><g fill="#627793" stroke="#f1f4f9" stroke-width="259.3" stroke-linejoin="round" paint-order="stroke"><use href="#i46" transform="translate(547.8 102.6) rotate(-49.5) scale(.0135) translate(-301.5 0)"/><use href="#i75" transform="translate(552.5 97.2) rotate(-47.4) scale(.0135) translate(-261 0)"/><use href="#i6c" transform="translate(556.2 93.5) rotate(-45.3) scale(.0135) translate(-129 0)"/><use href="#i6c" transform="translate(558.7 91) rotate(-43.2) scale(.0135) translate(-129 0)"/><use href="#i73" transform="translate(564.1 86.1) rotate(-41.1) scale(.0135) translate(-176.5 0)"/><use href="#i74" transform="translate(567.6 83.2) rotate(-39.1) scale(.0135) translate(-157 0)"/><use href="#i61" transform="translate(572 79.8) rotate(-37.1) scale(.0135) translate(-253.5 0)"/><use href="#i63" transform="translate(577 76.2) rotate(-35) scale(.0135) translate(-213.5 0)"/><use href="#i6b" transform="translate(582 72.9) rotate(-33) scale(.0135) translate(-233.5 0)"/><use href="#i26" transform="translate(591.7 67.2) rotate(-29.1) scale(.0135) translate(-363.5 0)"/><use href="#i57" transform="translate(604.8 61) rotate(-23.3) scale(.0135) translate(-473.5 0)"/><use href="#i65" transform="translate(612.9 57.8) rotate(-19.5) scale(.0135) translate(-221.5 0)"/><use href="#i62" transform="translate(618.9 55.8) rotate(-17.6) scale(.0135) translate(-246.5 0)"/><use href="#i33" transform="translate(625.4 53.9) rotate(-15.7) scale(.0135) translate(-250 0)"/></g><g fill="#627793" stroke="#f1f4f9" stroke-width="259.3" stroke-linejoin="round" paint-order="stroke"><use href="#i44" transform="translate(655.5 114.4) rotate(1.8) scale(.0135) translate(-366 0)"/><use href="#i65" transform="translate(663.4 114.8) rotate(4.3) scale(.0135) translate(-221.5 0)"/><use href="#i76" transform="translate(669.4 115.4) rotate(6.8) scale(.0135) translate(-224 0)"/><use href="#i65" transform="translate(675.2 116.4) rotate(11.6) scale(.0135) translate(-221.5 0)"/><use href="#i6c" transform="translate(679.8 117.4) rotate(14) scale(.0135) translate(-129 0)"/><use href="#i6f" transform="translate(684.8 118.7) rotate(16.4) scale(.0135) translate(-254.5 0)"/><use href="#i70" transform="translate(691.4 120.8) rotate(18.7) scale(.0135) translate(-254 0)"/><use href="#i65" transform="translate(697.2 123.1) rotate(23.4) scale(.0135) translate(-221.5 0)"/><use href="#i72" transform="translate(702.1 125.2) rotate(25.6) scale(.0135) translate(-172.5 0)"/><use href="#i74" transform="translate(708.9 128.7) rotate(27.9) scale(.0135) translate(-157 0)"/><use href="#i6f" transform="translate(713.7 131.5) rotate(32.3) scale(.0135) translate(-254.5 0)"/><use href="#i6f" transform="translate(719.4 135.2) rotate(34.5) scale(.0135) translate(-254.5 0)"/><use href="#i6c" transform="translate(723.6 138.2) rotate(36.7) scale(.0135) translate(-129 0)"/><use href="#i73" transform="translate(726.8 140.7) rotate(38.9) scale(.0135) translate(-176.5 0)"/></g></g><g class="soft" style="animation-delay:4.5s"><g transform="translate(649.3 93)"><circle r="8.2" fill="url(#hy)"/><g><path fill="url(#sy)" d="M-9.6 0Q0 -1.24 9.6 0Q0 1.24 -9.6 0Z"/><path fill="url(#vy)" d="M0 -9.6Q1.24 0 0 9.6Q-1.24 0 0 -9.6Z"/></g><circle r="1.7" fill="url(#cy)"/></g><g transform="translate(657.9 161.2)"><circle r="8.2" fill="url(#hy)"/><g><path fill="url(#sy)" d="M-9.6 0Q0 -1.24 9.6 0Q0 1.24 -9.6 0Z"/><path fill="url(#vy)" d="M0 -9.6Q1.24 0 0 9.6Q-1.24 0 0 -9.6Z"/></g><circle r="1.7" fill="url(#cy)"/></g></g><g class="soft" style="animation-delay:4.63s"><g transform="translate(709.8 218.9)"><circle r="16.5" fill="url(#hy)"/><g class="spk" style="animation-delay:-.74s"><path fill="url(#sy)" d="M-20.1 0Q0 -1.79 20.1 0Q0 1.79 -20.1 0Z"/><path fill="url(#vy)" d="M0 -20.1Q1.79 0 0 20.1Q-1.79 0 0 -20.1Z"/></g><circle r="2.6" fill="url(#cy)"/></g></g><g class="soft" style="animation-delay:4.75s"><g transform="translate(688.3 295.3)"><circle r="11.9" fill="url(#hy)"/><g><path fill="url(#sy)" d="M-14.7 0Q0 -1.51 14.7 0Q0 1.51 -14.7 0Z"/><path fill="url(#vy)" d="M0 -14.7Q1.51 0 0 14.7Q-1.51 0 0 -14.7Z"/></g><circle r="2.1" fill="url(#cy)"/></g></g><g class="soft" style="animation-delay:4.88s"><g transform="translate(617.4 332.9)"><circle r="11.9" fill="url(#hy)"/><g><path fill="url(#sy)" d="M-14.7 0Q0 -1.51 14.7 0Q0 1.51 -14.7 0Z"/><path fill="url(#vy)" d="M0 -14.7Q1.51 0 0 14.7Q-1.51 0 0 -14.7Z"/></g><circle r="2.1" fill="url(#cy)"/></g></g><g class="soft" style="animation-delay:5.01s"><g transform="translate(538.1 317.8)"><circle r="8.2" fill="url(#hy)"/><g><path fill="url(#sy)" d="M-9.6 0Q0 -1.24 9.6 0Q0 1.24 -9.6 0Z"/><path fill="url(#vy)" d="M0 -9.6Q1.24 0 0 9.6Q-1.24 0 0 -9.6Z"/></g><circle r="1.7" fill="url(#cy)"/></g></g><g class="soft" style="animation-delay:5.13s"><g transform="translate(479.8 261.4)"><circle r="10" fill="url(#hy)"/><g><path fill="url(#sy)" d="M-12.1 0Q0 -1.37 12.1 0Q0 1.37 -12.1 0Z"/><path fill="url(#vy)" d="M0 -12.1Q1.37 0 0 12.1Q-1.37 0 0 -12.1Z"/></g><circle r="1.9" fill="url(#cy)"/></g></g><g class="soft" style="animation-delay:5.26s"><g transform="translate(659 269.6)"><circle r="16.4" fill="url(#hy)"/><g><path fill="url(#sy)" d="M-20 0Q0 -1.79 20 0Q0 1.79 -20 0Z"/><path fill="url(#vy)" d="M0 -20Q1.79 0 0 20Q-1.79 0 0 -20Z"/></g><circle r="2.6" fill="url(#cy)"/></g></g><g class="soft" style="animation-delay:5.39s"><g transform="translate(572.7 275.8)"><circle r="8.2" fill="url(#hy)"/><g><path fill="url(#sy)" d="M-9.6 0Q0 -1.24 9.6 0Q0 1.24 -9.6 0Z"/><path fill="url(#vy)" d="M0 -9.6Q1.24 0 0 9.6Q-1.24 0 0 -9.6Z"/></g><circle r="1.7" fill="url(#cy)"/></g></g><g class="soft" style="animation-delay:5.51s"><g transform="translate(456.3 183.6)"><circle r="6.6" fill="url(#hy)"/><g><path fill="url(#sy)" d="M-7 0Q0 -1.1 7 0Q0 1.1 -7 0Z"/><path fill="url(#vy)" d="M0 -7Q1.1 0 0 7Q-1.1 0 0 -7Z"/></g><circle r="1.5" fill="url(#cy)"/></g></g><g class="soft" style="animation-delay:5.64s"><g transform="translate(525.7 200.4)"><circle r="6.6" fill="url(#hy)"/><g><path fill="url(#sy)" d="M-7 0Q0 -1.1 7 0Q0 1.1 -7 0Z"/><path fill="url(#vy)" d="M0 -7Q1.1 0 0 7Q-1.1 0 0 -7Z"/></g><circle r="1.5" fill="url(#cy)"/></g></g><g class="soft" style="animation-delay:5.77s"><g transform="translate(552.4 114.4)"><circle r="6.6" fill="url(#hy)"/><g><path fill="url(#sy)" d="M-7 0Q0 -1.1 7 0Q0 1.1 -7 0Z"/><path fill="url(#vy)" d="M0 -7Q1.1 0 0 7Q-1.1 0 0 -7Z"/></g><circle r="1.5" fill="url(#cy)"/></g></g><g class="soft" style="animation-delay:5.89s"><g transform="translate(629.3 66.3)"><circle r="11.5" fill="url(#hy)"/><g class="spk" style="animation-delay:-4.44s"><path fill="url(#sy)" d="M-14.2 0Q0 -1.48 14.2 0Q0 1.48 -14.2 0Z"/><path fill="url(#vy)" d="M0 -14.2Q1.48 0 0 14.2Q-1.48 0 0 -14.2Z"/></g><circle r="2.1" fill="url(#cy)"/></g></g><g class="soft" style="animation-delay:6.02s"><g transform="translate(568.3 186.2)"><circle r="12.2" fill="url(#hn)" class="tw" style="animation-delay:-4.81s"/><g class="spk" style="animation-delay:-4.81s"><path fill="url(#sn)" d="M-15.1 0Q0 -1.53 15.1 0Q0 1.53 -15.1 0Z"/><path fill="url(#vn)" d="M0 -15.1Q1.53 0 0 15.1Q-1.53 0 0 -15.1Z"/></g><circle r="2.2" fill="url(#cn)"/></g></g><g class="soft" style="animation-delay:6.15s"><g transform="translate(683.8 127.7)"><circle r="6.6" fill="url(#hn)" class="tw" style="animation-delay:-5.18s"/><g class="spk" style="animation-delay:-5.18s"><path fill="url(#sn)" d="M-7 0Q0 -1.1 7 0Q0 1.1 -7 0Z"/><path fill="url(#vn)" d="M0 -7Q1.1 0 0 7Q-1.1 0 0 -7Z"/></g><circle r="1.5" fill="url(#cn)"/></g></g><g class="soft" style="animation-delay:6.27s"><g transform="translate(721.3 233)"><circle r="6.6" fill="url(#hn)" class="tw" style="animation-delay:-5.55s"/><g class="spk" style="animation-delay:-5.55s"><path fill="url(#sn)" d="M-7 0Q0 -1.1 7 0Q0 1.1 -7 0Z"/><path fill="url(#vn)" d="M0 -7Q1.1 0 0 7Q-1.1 0 0 -7Z"/></g><circle r="1.5" fill="url(#cn)"/></g></g><g class="soft" style="animation-delay:6.4s"><g transform="translate(591.9 271)"><circle r="6.6" fill="url(#hn)" class="tw" style="animation-delay:-5.92s"/><g class="spk" style="animation-delay:-5.92s"><path fill="url(#sn)" d="M-7 0Q0 -1.1 7 0Q0 1.1 -7 0Z"/><path fill="url(#vn)" d="M0 -7Q1.1 0 0 7Q-1.1 0 0 -7Z"/></g><circle r="1.5" fill="url(#cn)"/></g></g><g class="soft" style="animation-delay:4.98s"><rect x="537.7" y="210.1" width="151" height="18.5" rx="8" fill="#f1f4f9" fill-opacity="0.8" filter="url(#lb)"/><g transform="translate(541.7 223.4) scale(.0135)" fill="#11305a" stroke="#f1f4f9" stroke-width="177.8" stroke-opacity=".55" stroke-linejoin="round" paint-order="stroke"><use href="#m64"/><use href="#m65" x="565"/><use href="#m6d" x="1052"/><use href="#m6f" x="1922"/><use href="#m2d" x="2475"/><use href="#m69" x="2849"/><use href="#m6f" x="3167"/><use href="#m6e" x="3709"/><use href="#m69" x="4295"/><use href="#m63" x="4613"/><use href="#m2d" x="5093"/><use href="#m74" x="5467"/><use href="#m61" x="5829"/><use href="#m62" x="6320"/><use href="#m2d" x="6896"/><use href="#m72" x="7270"/><use href="#m6f" x="7674"/><use href="#m75" x="8216"/><use href="#m74" x="8784"/><use href="#m69" x="9146"/><use href="#m6e" x="9464"/><use href="#m67" x="10050"/></g></g><g class="soft" style="animation-delay:6.37s"><rect x="584.4" y="177.4" width="77.7" height="18.5" rx="8" fill="#f1f4f9" fill-opacity="0.8" filter="url(#lb)"/><g transform="translate(588.4 190.7) scale(.0135)" fill="#11305a" stroke="#f1f4f9" stroke-width="177.8" stroke-opacity=".55" stroke-linejoin="round" paint-order="stroke"><use href="#m61"/><use href="#m67" x="491"/><use href="#m65" x="1027"/><use href="#m6e" x="1514"/><use href="#m74" x="2104"/><use href="#m2d" x="2449"/><use href="#m73" x="2823"/><use href="#m6b" x="3256"/><use href="#m69" x="3808"/><use href="#m6c" x="4126"/><use href="#m6c" x="4427"/><use href="#m73" x="4728"/></g></g><g class="soft" style="animation-delay:6.24s"><rect x="644.4" y="12.5" width="118.7" height="18.5" rx="8" fill="#f1f4f9" fill-opacity="0.8" filter="url(#lb)"/><g transform="translate(648.4 25.8) scale(.0135)" fill="#11305a" stroke="#f1f4f9" stroke-width="177.8" stroke-opacity=".55" stroke-linejoin="round" paint-order="stroke"><use href="#m31"/><use href="#m33" x="514"/><use href="#m33" x="1028"/><use href="#m37" x="1542"/><use href="#m2d" x="2056"/><use href="#m74" x="2430"/><use href="#m75" x="2792"/><use href="#m72" x="3360"/><use href="#m62" x="3764"/><use href="#m6f" x="4336"/><use href="#m2d" x="4889"/><use href="#m73" x="5263"/><use href="#m74" x="5687"/><use href="#m61" x="6049"/><use href="#m72" x="6544"/><use href="#m74" x="6948"/><use href="#m65" x="7310"/><use href="#m72" x="7797"/></g></g><g class="soft" style="animation-delay:6.5s"><rect x="605.4" y="133.9" width="70.4" height="18.5" rx="8" fill="#f1f4f9" fill-opacity="0.8" filter="url(#lb)"/><g transform="translate(609.4 147.2) scale(.0135)" fill="#11305a" stroke="#f1f4f9" stroke-width="177.8" stroke-opacity=".55" stroke-linejoin="round" paint-order="stroke"><use href="#m63"/><use href="#m6f" x="480"/><use href="#m6e" x="1022"/><use href="#m73" x="1612"/><use href="#m6f" x="2045"/><use href="#m6c" x="2587"/><use href="#m65" x="2888"/><use href="#m2d" x="3388"/><use href="#m66" x="3762"/><use href="#m78" x="4111"/></g></g><g transform="translate(44 196) scale(.048)" fill="#11305a"><use href="#l73"/><use href="#l65" x="421"/><use href="#l72" x="904"/><use href="#l76" x="1302"/><use href="#l72" x="1759"/><use href="#l6f" x="2141"/><use href="#l78" x="2663"/></g><g transform="translate(45 228) scale(.02)" fill="#627793"><use href="#i46"/><use href="#i75" x="573"/><use href="#i6c" x="1095"/><use href="#i6c" x="1353"/><use href="#i2d" x="1611"/><use href="#i73" x="1961"/><use href="#i74" x="2314"/><use href="#i61" x="2628"/><use href="#i63" x="3125"/><use href="#i6b" x="3552"/><use href="#i64" x="4257"/><use href="#i65" x="4772"/><use href="#i76" x="5215"/><use href="#i65" x="5653"/><use href="#i6c" x="6096"/><use href="#i6f" x="6354"/><use href="#i70" x="6863"/><use href="#i65" x="7361"/><use href="#i72" x="7804"/><use href="#ib7" x="8387"/><use href="#i53" x="8875"/><use href="#i74" x="9364"/><use href="#i75" x="9678"/><use href="#i74" x="10200"/><use href="#i74" x="10514"/><use href="#i67" x="10828"/><use href="#i61" x="11270"/><use href="#i72" x="11777"/><use href="#i74" x="12122"/></g><g transform="translate(45 274) scale(.0145)" fill="#627793"><use href="#i54"/><use href="#i68" x="645"/><use href="#i6f" x="1152"/><use href="#i75" x="1651"/><use href="#i67" x="2173"/><use href="#i68" x="2615"/><use href="#i74" x="3132"/><use href="#i66" x="3456"/><use href="#i75" x="3775"/><use href="#i6c" x="4297"/><use href="#i69" x="4793"/><use href="#i6e" x="5081"/><use href="#i74" x="5611"/><use href="#i65" x="5925"/><use href="#i72" x="6368"/><use href="#i66" x="6723"/><use href="#i61" x="7032"/><use href="#i63" x="7529"/><use href="#i65" x="7956"/><use href="#i73" x="8399"/><use href="#i2e" x="8752"/><use href="#i55" x="9229"/><use href="#i73" x="9982"/><use href="#i65" x="10335"/><use href="#i66" x="10778"/><use href="#i75" x="11097"/><use href="#i6c" x="11619"/><use href="#i74" x="12115"/><use href="#i6f" x="12429"/><use href="#i6f" x="12928"/><use href="#i6c" x="13437"/><use href="#i73" x="13695"/><use href="#i2e" x="14048"/></g></svg>